<svg width="585" height="590" viewBox="0 0 585 590" fill="none" xmlns="http://www.w3.org/2000/svg">
<path opacity="0.03" fill-rule="evenodd" clip-rule="evenodd" d="M94.8557 188.832C95.1132 242.114 94.5784 295.395 94.8557 348.676C163.484 326.648 230.045 298.677 293.777 265.084C344.345 290.382 395.744 316.391 445.796 333.52C445.994 353.372 445.598 372.534 445.796 392.366C395.368 374.507 344.781 348.4 293.777 322.252C209.776 368.173 125.418 396.905 43.7338 420.329V149.7C125.616 127.816 209.598 94.6629 293.777 50.2027C391.802 99.7739 490.58 142.3 584.941 161.264V111.279C489.451 92.0777 390.119 48.7424 293.777 0C194.742 52.3142 95.3509 88.9795 0 109.996V482.648C95.5292 459.718 194.505 427.039 293.777 372.692C359.834 406.555 426.187 437.537 491.095 457.547C490.58 404.108 491.63 351.32 491.095 297.861C426.524 278.72 359.477 247.955 293.777 214.98C244.083 241.12 192.687 263.917 139.937 283.219L139.639 224.195C192.489 205.473 244.006 183.209 293.837 157.554C377.026 199.568 460.216 235.325 541.226 255.276V528.233C460.196 506.941 377.125 472.979 293.837 429.564C194.802 483.734 95.4104 516.393 0.0594186 539.186V590C95.549 567.069 194.584 534.43 293.837 480.122C392.04 531.213 490.461 568.549 585 588.895V215.059C490.422 196.213 392.179 157.179 293.837 107.529C230.076 140.443 163.507 167.651 94.9152 188.832" fill="#0E171F"/>
</svg>
