<?xml version="1.0" encoding="utf-8"?>
<!-- Generator: Adobe Illustrator 23.0.0, SVG Export Plug-In . SVG Version: 6.00 Build 0)  -->
<svg version="1.1" id="Layer_1" xmlns="http://www.w3.org/2000/svg" xmlns:xlink="http://www.w3.org/1999/xlink" x="0px" y="0px"
	 viewBox="0 0 45 45.6" style="enable-background:new 0 0 45 45.6;" xml:space="preserve">
<style type="text/css">
	.st0{fill:#0E171F;}
</style>
<path class="st0" d="M22.6,3.9C30.1,7.7,37.7,11,45,12.5V8.6C37.7,7.1,30,3.8,22.6,0C15,4,7.3,6.9,0,8.5v28.8
	c7.4-1.8,15-4.3,22.6-8.5c5,2.6,10.1,5,15.1,6.5c0-4.1,0-8.2,0-12.3c-5-1.5-10.1-3.9-15.2-6.4c-3.8,2-7.8,3.8-11.8,5.3v-4.6
	c4.1-1.4,8-3.2,11.9-5.1c6.4,3.2,12.8,6,19,7.5v21.1c-6.2-1.6-12.6-4.3-19-7.6C15,37.4,7.3,39.9,0,41.7v3.9c7.3-1.8,15-4.3,22.6-8.5
	c7.6,3.9,15.1,6.8,22.4,8.4V16.6c-7.3-1.5-14.8-4.5-22.4-8.3c-4.9,2.5-10,4.6-15.3,6.3c0,4.1,0,8.2,0,12.3
	c5.3-1.7,10.4-3.9,15.3-6.5c3.9,2,7.8,4,11.7,5.3c0,1.5,0,3,0,4.5c-3.9-1.4-7.8-3.4-11.7-5.4c-6.5,3.5-13,5.8-19.2,7.6V11.6
	C9.7,9.9,16.2,7.3,22.6,3.9z"/>
</svg>
