<?xml version="1.0" encoding="utf-8"?>
<!-- Generator: Adobe Illustrator 23.0.0, SVG Export Plug-In . SVG Version: 6.00 Build 0)  -->
<svg version="1.1" id="Layer_1" xmlns="http://www.w3.org/2000/svg" xmlns:xlink="http://www.w3.org/1999/xlink" x="0px" y="0px"
	 viewBox="0 0 216.9 87" style="enable-background:new 0 0 216.9 87;" xml:space="preserve">
<style type="text/css">
	.st0{fill:none;}
	.st1{fill:#FFFFFF;}
</style>
<g>
	<polygon class="st0" points="115.3,71.8 113.9,75.7 116.7,75.7 115.3,71.8 	"/>
	<path class="st1" d="M0,16.2v54.9C13.9,67.8,28.3,63,42.8,55c9.6,5,19.3,9.6,28.7,12.5c-0.1-7.9,0.1-15.7,0-23.5
		c-9.4-2.8-19.2-7.4-28.7-12.2c-7.2,3.9-14.7,7.2-22.4,10.1l0-8.7c7.7-2.8,15.2-6,22.4-9.8c12.1,6.2,24.2,11.5,36,14.4v40.2
		c-11.8-3.1-23.9-8.1-36-14.5C28.3,71.3,13.9,76.1,0,79.5V87c13.9-3.4,28.3-8.2,42.8-16.2c14.3,7.5,28.6,13,42.4,16V31.7
		c-13.8-2.8-28.1-8.5-42.4-15.9c-9.3,4.9-19,8.9-29,12h0c0,7.9,0,15.7,0,23.6c10-3.2,19.7-7.4,29-12.3c7.4,3.7,14.8,7.6,22.1,10.1
		c0,2.9,0,5.8,0,8.7c-7.3-2.6-14.7-6.5-22.1-10.3C30.5,54.3,18.3,58.5,6.4,62V22.1C18.3,18.8,30.5,14,42.8,7.4
		C57,14.7,71.4,21,85.2,23.8v-7.4C71.3,13.6,56.8,7.2,42.8,0C28.3,7.7,13.9,13.1,0,16.2z"/>
	<path class="st1" d="M127.5,22.5h-9V44c0,2.3-0.3,3.9-0.9,4.8c-0.8,1.3-2.2,1.9-4.4,1.9c-1.5,0-2.7-0.5-3.6-1.4
		c-0.9-0.9-1.3-2.2-1.3-3.8v-2.3h-9v2.1c0,4.4,1.5,7.5,4.6,9.3c2.4,1.5,5.8,2.2,10.3,2.2c5.8,0,9.6-1.6,11.6-4.8
		c1.2-1.9,1.8-5,1.8-9.1V22.5z"/>
	<path class="st1" d="M172.4,37.3h-16.9v5.8l8,0c-1,4.9-4.2,7.4-9.8,7.4c-3.7,0-6.6-1.2-8.6-3.7c-1.6-2-2.5-4.6-2.5-7.6
		c0-3,0.8-5.6,2.5-7.6c2-2.5,4.8-3.7,8.6-3.7c4.5,0,7.3,1.8,8.5,5.5h10c-1.4-7.9-7.9-11.9-19.5-11.9c-6.1,0-11,1.7-14.5,5
		c-3.4,3.2-5.1,7.4-5.1,12.7c0,11.8,6.5,17.7,19.6,17.7c6.3,0,11-1.6,13.9-4.8l1.2,3.9h4.6V37.3z"/>
	<path class="st1" d="M207.1,43.1c-0.4,2.5-1.5,4.4-3.4,5.7c-1.6,1.2-3.7,1.7-6,1.7c-3.8,0-6.6-1.3-8.4-4c-1.3-2-2-4.4-2-7.3
		c0-2.9,0.7-5.4,2-7.3c1.8-2.6,4.6-3.9,8.4-3.9c2.4,0,4.5,0.6,6.2,1.8c1.8,1.3,2.9,3.1,3.3,5.4h9.7c-1.1-9.1-7.6-13.6-19.5-13.6
		c-13.1,0-19.6,5.9-19.6,17.7c0,11.8,6.5,17.7,19.6,17.7c5.5,0,10-1.1,13.3-3.2c3.6-2.3,5.7-5.9,6.3-10.5v0H207.1z"/>
	<polygon class="st1" points="99.5,79.3 101.1,79.3 101.1,75.3 105.2,75.3 105.2,74 101.1,74 101.1,71.6 105.7,71.6 105.7,70.3 
		99.5,70.3 	"/>
	<path class="st1" d="M114.5,70.3l-3.4,9h1.6l0.8-2.4h3.6l0.8,2.4h1.7l-3.4-9H114.5z M113.9,75.7l1.4-3.9h0l1.3,3.9H113.9z"/>
	<path class="st1" d="M132.2,76.8c-0.1,0.3-0.3,0.5-0.5,0.8c-0.2,0.2-0.4,0.4-0.7,0.5c-0.3,0.1-0.6,0.2-0.9,0.2
		c-0.4,0-0.9-0.1-1.2-0.3c-0.3-0.2-0.6-0.5-0.8-0.8c-0.2-0.3-0.4-0.7-0.5-1.1c-0.2-0.8-0.2-1.7,0-2.5c0.1-0.4,0.3-0.8,0.5-1.1
		c0.2-0.3,0.5-0.6,0.8-0.8c0.4-0.2,0.8-0.3,1.2-0.3c0.3,0,0.6,0,0.9,0.1c0.2,0.1,0.5,0.2,0.6,0.4c0.2,0.2,0.3,0.4,0.5,0.6
		c0.1,0.2,0.2,0.5,0.3,0.7h1.6c0-0.5-0.2-0.9-0.4-1.3c-0.2-0.4-0.5-0.7-0.8-1c-0.4-0.3-0.7-0.5-1.2-0.6c-0.5-0.1-0.9-0.2-1.4-0.2
		c-0.6,0-1.2,0.1-1.8,0.4c-0.5,0.2-1,0.6-1.3,1c-0.4,0.4-0.7,1-0.8,1.5c-0.4,1.2-0.4,2.5,0,3.7c0.2,0.6,0.5,1.1,0.8,1.5
		c0.4,0.4,0.8,0.8,1.3,1c0.6,0.3,1.2,0.4,1.8,0.4c0.5,0,1-0.1,1.5-0.3c0.4-0.2,0.8-0.4,1.2-0.8c0.3-0.3,0.6-0.7,0.8-1.2
		c0.2-0.5,0.3-1,0.3-1.5h-1.5C132.3,76.2,132.3,76.5,132.2,76.8z"/>
	<rect x="141.6" y="70.3" class="st1" width="1.6" height="9"/>
	<polygon class="st1" points="153.4,70.3 151.8,70.3 151.8,79.3 157.9,79.3 157.9,77.9 153.4,77.9 	"/>
	<rect x="163.6" y="70.3" class="st1" width="1.6" height="9"/>
	<polygon class="st1" points="172.1,71.6 174.9,71.6 174.9,79.3 176.5,79.3 176.5,71.6 179.3,71.6 179.3,70.3 172.1,70.3 	"/>
	<rect x="186.2" y="70.3" class="st1" width="1.6" height="9"/>
	<polygon class="st1" points="197.9,75.3 202.4,75.3 202.4,74 197.9,74 197.9,71.6 202.8,71.6 202.8,70.3 196.4,70.3 196.4,79.3 
		202.9,79.3 202.9,77.9 197.9,77.9 	"/>
	<path class="st1" d="M216.2,75.3c-0.2-0.2-0.3-0.4-0.5-0.6c-0.2-0.2-0.5-0.3-0.8-0.4c-0.1,0-0.3-0.1-0.6-0.2l-0.8-0.2l-0.8-0.2
		l-0.4-0.1c-0.3-0.1-0.6-0.2-0.8-0.4c-0.2-0.2-0.3-0.4-0.3-0.6c0-0.2,0-0.5,0.2-0.7c0.1-0.2,0.2-0.3,0.4-0.4
		c0.2-0.1,0.3-0.2,0.5-0.2c0.2,0,0.4-0.1,0.6-0.1c0.5,0,0.9,0.1,1.3,0.4c0.4,0.2,0.5,0.7,0.6,1.2h1.6c0-0.4-0.1-0.8-0.3-1.2
		c-0.2-0.4-0.4-0.7-0.8-1c-0.3-0.3-0.7-0.4-1.1-0.6c-0.4-0.1-0.9-0.2-1.3-0.2c-0.4,0-0.8,0.1-1.2,0.2c-0.4,0.1-0.7,0.3-1.1,0.5
		c-0.3,0.2-0.6,0.5-0.7,0.8c-0.2,0.4-0.3,0.8-0.3,1.2c0,0.2,0,0.5,0.1,0.7c0.1,0.2,0.2,0.5,0.3,0.6c0.2,0.2,0.4,0.4,0.6,0.6
		c0.3,0.2,0.6,0.3,1,0.4c0.6,0.2,1.1,0.3,1.6,0.4c0.4,0.1,0.7,0.2,1.1,0.3c0.2,0.1,0.4,0.2,0.5,0.3c0.2,0.2,0.3,0.5,0.2,0.8
		c0,0.2,0,0.3-0.1,0.5c-0.1,0.2-0.2,0.3-0.3,0.4c-0.2,0.1-0.4,0.2-0.6,0.3c-0.3,0.1-0.6,0.1-0.9,0.1c-0.3,0-0.6,0-0.9-0.1
		c-0.3-0.1-0.5-0.2-0.7-0.3c-0.2-0.2-0.4-0.4-0.5-0.6c-0.1-0.3-0.2-0.6-0.2-0.9l-1.5,0c0,0.5,0.1,1,0.3,1.4c0.2,0.4,0.5,0.7,0.8,1
		c0.4,0.3,0.8,0.5,1.2,0.6c0.5,0.1,1,0.2,1.4,0.2c0.4,0,0.9-0.1,1.3-0.2c0.4-0.1,0.8-0.3,1.1-0.5c0.3-0.2,0.6-0.5,0.8-0.9
		c0.2-0.4,0.3-0.8,0.3-1.3c0-0.2,0-0.5-0.1-0.7C216.4,75.7,216.3,75.5,216.2,75.3z"/>
</g>
</svg>
