<?xml version="1.0" encoding="utf-8"?>
<!-- Generator: Adobe Illustrator 23.0.0, SVG Export Plug-In . SVG Version: 6.00 Build 0)  -->
<svg version="1.1" id="Layer_1" xmlns="http://www.w3.org/2000/svg" xmlns:xlink="http://www.w3.org/1999/xlink" x="0px" y="0px"
	 viewBox="0 0 218.8 87" style="enable-background:new 0 0 218.8 87;" xml:space="preserve">
<style type="text/css">
	.st0{fill:none;}
	.st1{fill:#FFFFFF;}
</style>
<g>
	<path class="st0" d="M158.4,72.4c-0.2-0.3-0.5-0.6-0.9-0.8c-0.4-0.2-0.8-0.3-1.3-0.3c-0.4,0-0.9,0.1-1.3,0.3
		c-0.3,0.2-0.6,0.5-0.9,0.8c-0.2,0.3-0.4,0.7-0.5,1.1c-0.2,0.8-0.2,1.7,0,2.5c0.1,0.4,0.3,0.8,0.5,1.1c0.2,0.3,0.5,0.6,0.9,0.8
		c0.4,0.2,0.8,0.3,1.3,0.3s0.9-0.1,1.3-0.3c0.3-0.2,0.6-0.5,0.9-0.8c0.2-0.3,0.4-0.7,0.5-1.1c0.2-0.8,0.2-1.7,0-2.5
		C158.7,73.1,158.6,72.7,158.4,72.4z"/>
	<path class="st0" d="M169.6,71.8c-0.1-0.1-0.3-0.2-0.5-0.2c-0.2,0-0.4-0.1-0.6-0.1h-2.4l0,3h2.3c0.2,0,0.4,0,0.5-0.1
		c0.2-0.1,0.4-0.1,0.5-0.2c0.2-0.1,0.3-0.3,0.4-0.5c0.1-0.2,0.2-0.5,0.1-0.7c0-0.3,0-0.5-0.1-0.7C169.9,72.1,169.8,71.9,169.6,71.8z
		"/>
	<path class="st0" d="M106,72.4c-0.2-0.3-0.6-0.5-0.9-0.7c-0.5-0.2-1-0.3-1.5-0.2H102V78h1.6c0.5,0,1-0.1,1.5-0.2
		c0.4-0.1,0.7-0.4,0.9-0.7c0.2-0.3,0.4-0.7,0.5-1c0.2-0.8,0.2-1.7,0-2.6C106.4,73.1,106.2,72.7,106,72.4z"/>
	<path class="st1" d="M0,16.2v54.9C14,67.8,28.6,63,43.2,55c9.7,5,19.5,9.6,29,12.5c-0.1-7.9,0.1-15.7,0-23.5
		c-9.5-2.8-19.3-7.4-29-12.2c-7.3,3.9-14.9,7.2-22.6,10.1c0-2.9,0-5.8,0-8.7c7.8-2.8,15.3-6,22.7-9.8c12.2,6.2,24.4,11.5,36.3,14.4
		v40.2c-11.9-3.1-24.1-8.1-36.3-14.5C28.6,71.3,14,76.1,0,79.5V87c14-3.4,28.6-8.2,43.2-16.2c14.4,7.5,28.9,13,42.8,16V31.7
		C72,28.9,57.6,23.2,43.2,15.9c-9.4,4.9-19.1,8.9-29.2,12c0,7.9,0,15.7,0,23.6C24,48.2,33.8,44,43.2,39.1c7.4,3.7,15,7.6,22.3,10.1
		c0,2.9,0,5.8,0,8.7c-7.4-2.6-14.8-6.5-22.3-10.3C30.8,54.3,18.4,58.5,6.4,62V22.1c12-3.2,24.4-8.1,36.7-14.7
		C57.6,14.7,72.1,21,85.9,23.8v-7.4C71.9,13.6,57.3,7.2,43.2,0C28.6,7.7,14,13.1,0,16.2z"/>
	<path class="st1" d="M104.8,54.6c2.4,1.5,5.9,2.2,10.4,2.2c5.8,0,9.7-1.6,11.7-4.8c1.2-1.9,1.8-5,1.8-9.1V22.5h-9.1V44
		c0,2.3-0.3,3.9-0.9,4.8c-0.8,1.3-2.3,1.9-4.5,1.9c-1.5,0-2.7-0.5-3.6-1.4c-0.9-0.9-1.3-2.2-1.3-3.8v-2.3h-9.1v2.1
		C100.2,49.7,101.7,52.8,104.8,54.6z"/>
	<path class="st1" d="M156.9,43.1l8.1,0c-1,4.9-4.3,7.4-9.9,7.4c-3.8,0-6.7-1.2-8.7-3.7c-1.7-2-2.5-4.6-2.5-7.6c0-3,0.8-5.6,2.5-7.6
		c2-2.5,4.9-3.7,8.7-3.7c4.5,0,7.4,1.8,8.5,5.5h10.1c-1.4-7.9-8-11.9-19.7-11.9c-6.2,0-11.1,1.7-14.6,5c-3.4,3.2-5.2,7.4-5.2,12.7
		c0,11.8,6.6,17.7,19.8,17.7c6.4,0,11.1-1.6,14.1-4.8l1.2,3.9h4.6V37.3h-17.1V43.1z"/>
	<path class="st1" d="M218.8,43.1h-9.9c-0.4,2.5-1.6,4.4-3.5,5.7c-1.7,1.2-3.7,1.7-6.1,1.7c-3.8,0-6.7-1.3-8.4-3.9
		c-1.3-2-2-4.4-2-7.4s0.7-5.4,2-7.4c1.8-2.6,4.6-3.9,8.4-3.9c2.5,0,4.5,0.6,6.2,1.8c1.8,1.3,2.9,3.1,3.3,5.4h9.8
		c-1.1-9.1-7.6-13.6-19.7-13.6c-13.2,0-19.8,5.9-19.8,17.7s6.6,17.7,19.8,17.7c5.6,0,10.1-1.1,13.4-3.2
		C216.2,51.3,218.3,47.8,218.8,43.1z"/>
	<path class="st1" d="M107.2,71.5c-0.3-0.4-0.8-0.8-1.2-1c-0.6-0.3-1.2-0.4-1.8-0.4h-3.8v9.1h3.8c0.6,0,1.2-0.1,1.8-0.4
		c0.5-0.2,0.9-0.6,1.2-1c0.3-0.4,0.6-0.9,0.7-1.4c0.3-1.2,0.3-2.4,0-3.5C107.8,72.5,107.5,72,107.2,71.5z M106.4,76
		c-0.1,0.4-0.2,0.7-0.5,1c-0.2,0.3-0.6,0.5-0.9,0.7c-0.5,0.2-1,0.3-1.5,0.2H102v-6.5h1.6c0.5,0,1,0.1,1.5,0.2
		c0.4,0.1,0.7,0.4,0.9,0.7c0.2,0.3,0.4,0.7,0.5,1C106.6,74.3,106.6,75.2,106.4,76z"/>
	<polygon class="st1" points="113.7,75.3 118.3,75.3 118.3,74 113.7,74 113.7,71.6 118.6,71.6 118.6,70.2 112.1,70.2 112.1,79.3 
		118.7,79.3 118.7,77.9 113.7,77.9 	"/>
	<polygon class="st1" points="125.6,77.4 125.5,77.4 123.3,70.2 121.6,70.2 124.6,79.3 126.4,79.3 129.5,70.2 127.9,70.2 	"/>
	<polygon class="st1" points="134.5,75.3 139.1,75.3 139.1,74 134.5,74 134.5,71.6 139.5,71.6 139.5,70.2 132.9,70.2 132.9,79.3 
		139.6,79.3 139.6,77.9 134.5,77.9 	"/>
	<polygon class="st1" points="145.7,70.2 144.1,70.2 144.1,79.3 150.3,79.3 150.3,77.9 145.7,77.9 	"/>
	<path class="st1" d="M159.4,71.4c-0.4-0.4-0.8-0.8-1.4-1c-0.6-0.3-1.2-0.4-1.8-0.4c-0.6,0-1.3,0.1-1.8,0.4c-0.5,0.2-1,0.6-1.4,1
		c-0.4,0.4-0.7,1-0.9,1.5c-0.4,1.2-0.4,2.5,0,3.7c0.2,0.6,0.5,1.1,0.9,1.5c0.4,0.4,0.8,0.8,1.4,1c0.6,0.2,1.2,0.4,1.8,0.4
		s1.2-0.1,1.8-0.4c0.5-0.2,1-0.6,1.4-1c0.4-0.4,0.7-1,0.9-1.5c0.4-1.2,0.4-2.5,0-3.7C160.1,72.4,159.8,71.8,159.4,71.4z M158.8,76
		c-0.1,0.4-0.3,0.8-0.5,1.1c-0.2,0.3-0.5,0.6-0.9,0.8c-0.4,0.2-0.8,0.3-1.3,0.3s-0.9-0.1-1.3-0.3c-0.3-0.2-0.6-0.5-0.9-0.8
		c-0.2-0.3-0.4-0.7-0.5-1.1c-0.2-0.8-0.2-1.7,0-2.5c0.1-0.4,0.3-0.8,0.5-1.1c0.2-0.3,0.5-0.6,0.9-0.8c0.4-0.2,0.8-0.3,1.3-0.3
		c0.4,0,0.9,0.1,1.3,0.3c0.3,0.2,0.6,0.5,0.9,0.8c0.2,0.3,0.4,0.7,0.5,1.1C159.1,74.3,159.1,75.2,158.8,76z"/>
	<path class="st1" d="M171.1,71.2c-0.3-0.3-0.6-0.5-0.9-0.7c-0.5-0.2-1-0.3-1.6-0.3h-4v9.1h1.6v-3.5h2.4c0.5,0,1.1-0.1,1.6-0.3
		c0.4-0.2,0.7-0.4,0.9-0.7c0.2-0.3,0.4-0.6,0.5-0.9c0.1-0.3,0.1-0.6,0.1-0.9c0-0.3,0-0.6-0.1-0.9C171.5,71.8,171.3,71.5,171.1,71.2z
		 M169.9,73.7c-0.1,0.2-0.2,0.3-0.4,0.5c-0.2,0.1-0.3,0.2-0.5,0.2c-0.2,0-0.4,0.1-0.5,0.1h-2.3l0-3h2.4c0.2,0,0.4,0,0.6,0.1
		c0.2,0,0.4,0.1,0.5,0.2c0.2,0.1,0.3,0.3,0.3,0.5c0.1,0.2,0.1,0.5,0.1,0.7C170.1,73.2,170,73.5,169.9,73.7z"/>
	<polygon class="st1" points="180,77.3 180,77.3 177.5,70.2 175.3,70.2 175.3,79.3 176.8,79.3 176.8,72.3 176.8,72.3 179.3,79.3 
		180.6,79.3 183.1,72.3 183.2,72.3 183.2,79.3 184.7,79.3 184.7,70.2 182.5,70.2 	"/>
	<polygon class="st1" points="190.8,75.3 195.4,75.3 195.4,74 190.8,74 190.8,71.6 195.8,71.6 195.8,70.2 189.2,70.2 189.2,79.3 
		195.9,79.3 195.9,77.9 190.8,77.9 	"/>
	<polygon class="st1" points="206.2,76.9 206.2,76.9 202,70.2 200.4,70.2 200.4,79.3 201.9,79.3 201.9,72.6 201.9,72.6 206,79.3 
		207.7,79.3 207.7,70.2 206.2,70.2 	"/>
	<polygon class="st1" points="211.3,71.6 214.2,71.6 214.2,79.3 215.7,79.3 215.7,71.6 218.6,71.6 218.6,70.2 211.3,70.2 	"/>
</g>
</svg>
