<?xml version="1.0" encoding="utf-8"?>
<!-- Generator: Adobe Illustrator 23.0.0, SVG Export Plug-In . SVG Version: 6.00 Build 0)  -->
<svg version="1.1" id="Layer_1" xmlns="http://www.w3.org/2000/svg" xmlns:xlink="http://www.w3.org/1999/xlink" x="0px" y="0px"
	 viewBox="0 0 220 87" style="enable-background:new 0 0 220 87;" xml:space="preserve">
<style type="text/css">
	.st0{fill:none;}
	.st1{fill:#FFFFFF;}
</style>
<g>
	<polygon class="st0" points="204.8,71.8 203.4,75.7 206.2,75.7 204.8,71.8 	"/>
	<path class="st0" d="M150.9,72.4c-0.2-0.3-0.6-0.6-0.9-0.7c-0.5-0.2-1-0.3-1.6-0.3h-1.6v6.6h1.6c0.5,0,1.1-0.1,1.6-0.3
		c0.4-0.1,0.7-0.4,0.9-0.7c0.2-0.3,0.4-0.7,0.5-1c0.1-0.4,0.1-0.9,0.1-1.3c0-0.4,0-0.9-0.1-1.3C151.3,73.1,151.1,72.8,150.9,72.4z"
		/>
	<path class="st0" d="M106.3,71.7c-0.2-0.1-0.3-0.2-0.5-0.2c-0.2,0-0.4-0.1-0.6-0.1h-2.6v2.9l0,0h2.7c0.5,0,0.9-0.1,1.2-0.4
		c0.3-0.2,0.4-0.6,0.4-1.1c0-0.2,0-0.5-0.1-0.7C106.5,72,106.4,71.8,106.3,71.7z"/>
	<path class="st1" d="M108.2,77c0-0.3,0-0.6-0.1-0.9c-0.1-0.2-0.2-0.4-0.3-0.6c-0.1-0.1-0.3-0.3-0.4-0.3c-0.1-0.1-0.3-0.1-0.4-0.1v0
		c0.1,0,0.2-0.1,0.4-0.2c0.2-0.1,0.4-0.2,0.5-0.4c0.2-0.2,0.3-0.4,0.5-0.7c0.1-0.3,0.2-0.7,0.2-1.1c0-0.8-0.3-1.4-0.8-1.8
		c-0.5-0.4-1.3-0.7-2.3-0.7h-4.4v9.2h1.6v-3.8h2.4c0.3,0,0.6,0,0.9,0.1c0.2,0.1,0.4,0.2,0.6,0.4c0.1,0.2,0.2,0.5,0.3,0.8
		c0.1,0.4,0.1,0.7,0.1,1.1c0,0.2,0,0.5,0,0.7c0,0.2,0.1,0.5,0.2,0.7h1.7c-0.2-0.3-0.3-0.6-0.4-0.9C108.3,78,108.2,77.5,108.2,77z
		 M106.3,74c-0.3,0.2-0.7,0.4-1.2,0.4h-2.7l0,0v-2.9h2.6c0.2,0,0.4,0,0.6,0.1c0.2,0,0.4,0.1,0.5,0.2c0.2,0.1,0.3,0.3,0.4,0.4
		c0.1,0.2,0.1,0.5,0.1,0.7C106.7,73.4,106.6,73.7,106.3,74z"/>
	<polygon class="st1" points="115.4,75.3 120,75.3 120,74 115.4,74 115.4,71.6 120.4,71.6 120.4,70.2 113.7,70.2 113.7,79.4 
		120.5,79.4 120.5,78 115.4,78 	"/>
	<path class="st1" d="M132.2,75.3c-0.2-0.2-0.3-0.4-0.6-0.6c-0.2-0.2-0.5-0.3-0.8-0.4c-0.1,0-0.3-0.1-0.6-0.2l-0.9-0.2l-0.8-0.2
		l-0.4-0.1c-0.3-0.1-0.6-0.2-0.8-0.4c-0.2-0.2-0.3-0.4-0.3-0.7c0-0.2,0-0.5,0.2-0.7c0.1-0.2,0.2-0.3,0.4-0.4
		c0.2-0.1,0.4-0.2,0.5-0.2c0.2,0,0.4-0.1,0.6-0.1c0.5,0,1,0.1,1.4,0.4c0.4,0.2,0.6,0.7,0.6,1.3h1.6c0-0.4-0.1-0.8-0.3-1.2
		c-0.2-0.4-0.5-0.7-0.8-1c-0.3-0.3-0.7-0.4-1.1-0.6c-0.4-0.1-0.9-0.2-1.4-0.2c-0.4,0-0.8,0.1-1.2,0.2c-0.4,0.1-0.8,0.3-1.1,0.5
		c-0.3,0.2-0.6,0.5-0.8,0.8c-0.2,0.4-0.3,0.8-0.3,1.2c0,0.2,0,0.5,0.1,0.7c0.1,0.2,0.2,0.5,0.3,0.7c0.2,0.2,0.4,0.4,0.6,0.6
		c0.3,0.2,0.6,0.3,1,0.4c0.6,0.2,1.2,0.3,1.6,0.4c0.4,0.1,0.8,0.2,1.1,0.3c0.2,0.1,0.4,0.2,0.5,0.4c0.2,0.2,0.3,0.5,0.2,0.8
		c0,0.2,0,0.3-0.1,0.5c-0.1,0.2-0.2,0.3-0.3,0.4c-0.2,0.1-0.4,0.3-0.6,0.3c-0.3,0.1-0.6,0.1-0.9,0.1c-0.3,0-0.6,0-0.9-0.1
		c-0.3-0.1-0.5-0.2-0.7-0.3c-0.2-0.2-0.4-0.4-0.5-0.6c-0.1-0.3-0.2-0.6-0.2-0.9l0,0h-1.6c0,0.5,0.1,1,0.3,1.5c0.2,0.4,0.5,0.8,0.8,1
		c0.4,0.3,0.8,0.5,1.2,0.6c0.5,0.1,1,0.2,1.5,0.2c0.5,0,0.9-0.1,1.4-0.2c0.4-0.1,0.8-0.3,1.2-0.5c0.3-0.2,0.6-0.5,0.8-0.9
		c0.2-0.4,0.3-0.9,0.3-1.3c0-0.2,0-0.5-0.1-0.7C132.4,75.7,132.3,75.5,132.2,75.3z"/>
	<rect x="137.8" y="70.2" class="st1" width="1.6" height="9.2"/>
	<path class="st1" d="M152.1,71.5c-0.3-0.4-0.8-0.8-1.3-1c-0.6-0.3-1.2-0.4-1.9-0.4h-3.8v9.2h3.8c0.6,0,1.3-0.1,1.9-0.4
		c0.5-0.2,0.9-0.6,1.3-1c0.3-0.4,0.6-0.9,0.7-1.5c0.3-1.2,0.3-2.4,0-3.6C152.7,72.5,152.5,72,152.1,71.5z M151.4,76.1
		c-0.1,0.4-0.2,0.7-0.5,1c-0.2,0.3-0.6,0.6-0.9,0.7c-0.5,0.2-1,0.3-1.6,0.3h-1.6v-6.6h1.6c0.5,0,1.1,0.1,1.6,0.3
		c0.4,0.1,0.7,0.4,0.9,0.7c0.2,0.3,0.4,0.7,0.5,1c0.1,0.4,0.1,0.9,0.1,1.3C151.5,75.2,151.5,75.6,151.4,76.1z"/>
	<polygon class="st1" points="159.6,75.3 164.2,75.3 164.2,74 159.6,74 159.6,71.6 164.6,71.6 164.6,70.2 157.9,70.2 157.9,79.4 
		164.7,79.4 164.7,78 159.6,78 	"/>
	<polygon class="st1" points="176.2,77 176.2,77 171.9,70.2 170.2,70.2 170.2,79.4 171.8,79.4 171.8,72.6 171.8,72.6 176,79.4 
		177.7,79.4 177.7,70.2 176.2,70.2 	"/>
	<polygon class="st1" points="182.3,71.6 185.2,71.6 185.2,79.4 186.9,79.4 186.9,71.6 189.8,71.6 189.8,70.2 182.3,70.2 	"/>
	<rect x="194.3" y="70.2" class="st1" width="1.6" height="9.2"/>
	<path class="st1" d="M204,70.2l-3.6,9.2h1.7l0.9-2.4h3.7l0.9,2.4h1.7l-3.6-9.2H204z M203.4,75.7l1.4-4h0l1.4,4H203.4z"/>
	<polygon class="st1" points="215.2,70.2 213.5,70.2 213.5,79.4 219.9,79.4 219.9,78 215.2,78 	"/>
	<path class="st1" d="M0,16.2v54.9c14.1-3.4,28.7-8.2,43.4-16.2c9.8,5,19.6,9.6,29.1,12.5c-0.1-7.9,0.1-15.7,0-23.5
		c-9.5-2.8-19.4-7.4-29.1-12.2c-7.3,3.9-14.9,7.2-22.7,10.1l0-8.7c7.8-2.8,15.4-6,22.8-9.8C55.7,29.4,68,34.7,79.9,37.6v40.2
		c-12-3.1-24.2-8.1-36.5-14.5C28.8,71.3,14.1,76.1,0,79.5V87c14.1-3.4,28.7-8.2,43.4-16.2c14.5,7.5,29,13,43,16V31.7
		c-14-2.8-28.5-8.5-43-15.8c-9.4,4.8-19.3,8.9-29.4,12c0,7.9,0,15.7,0,23.6c10.1-3.2,20-7.4,29.4-12.3c7.5,3.7,15.1,7.6,22.5,10.1
		c0,2.9,0,5.8,0,8.7c-7.4-2.6-14.9-6.5-22.5-10.3C31,54.3,18.5,58.5,6.5,62V22.1C18.6,18.8,31,14,43.4,7.4
		c14.5,7.3,29.1,13.6,43,16.4v-7.4C72.3,13.6,57.6,7.2,43.4,0C28.8,7.7,14.1,13.1,0,16.2z"/>
	<path class="st1" d="M105.4,54.6c2.4,1.5,5.9,2.2,10.5,2.2c5.8,0,9.8-1.6,11.8-4.8c1.2-1.9,1.8-5,1.8-9.1V22.4h-9.1V44
		c0,2.2-0.3,3.9-0.9,4.8c-0.8,1.3-2.3,1.9-4.5,1.9c-1.5,0-2.7-0.5-3.6-1.4c-0.9-0.9-1.3-2.2-1.3-3.8v-2.3h-9.1v2.1
		C100.8,49.7,102.3,52.8,105.4,54.6z"/>
	<path class="st1" d="M174.9,55.9V37.2h-17.1V43h8.2c-1,4.9-4.3,7.4-9.9,7.4c-3.8,0-6.7-1.2-8.7-3.7c-1.7-2-2.5-4.6-2.5-7.6
		c0-3,0.8-5.6,2.5-7.6c2-2.5,4.9-3.7,8.7-3.7c4.6,0,7.4,1.8,8.6,5.5h10.2c-1.4-7.9-8-11.9-19.8-11.9c-6.2,0-11.1,1.7-14.7,5
		c-3.5,3.2-5.2,7.4-5.2,12.7c0,11.8,6.6,17.7,19.9,17.7c6.4,0,11.1-1.6,14.1-4.8l1.2,3.9H174.9z"/>
	<polygon class="st1" points="157.8,43.1 157.8,43 157.8,43 	"/>
	<path class="st1" d="M210.1,43.1c-0.4,2.5-1.6,4.4-3.5,5.7c-1.7,1.2-3.7,1.7-6.1,1.7c-3.9,0-6.7-1.3-8.5-3.9c-1.3-2-2-4.4-2-7.4
		c0-2.9,0.7-5.4,2-7.4c1.8-2.6,4.6-3.9,8.5-3.9c2.5,0,4.6,0.6,6.3,1.8c1.8,1.3,2.9,3.1,3.3,5.4h9.8c-1.1-9.1-7.7-13.6-19.8-13.6
		c-13.3,0-19.9,5.9-19.9,17.7c0,11.8,6.6,17.7,19.9,17.7c5.6,0,10.1-1.1,13.5-3.2c3.7-2.3,5.8-5.8,6.4-10.5v-0.1H210.1z"/>
</g>
</svg>
