<?xml version="1.0" encoding="utf-8"?>
<!-- Generator: Adobe Illustrator 23.0.0, SVG Export Plug-In . SVG Version: 6.00 Build 0)  -->
<svg version="1.1" id="Layer_1" xmlns="http://www.w3.org/2000/svg" xmlns:xlink="http://www.w3.org/1999/xlink" x="0px" y="0px"
	 viewBox="0 0 218.8 87" style="enable-background:new 0 0 218.8 87;" xml:space="preserve">
<style type="text/css">
	.st0{fill:none;}
	.st1{fill:#FFFFFF;}
</style>
<g>
	<polygon class="st0" points="203.5,72 202.1,75.9 204.9,75.9 203.5,72 	"/>
	<path class="st0" d="M119.1,72.6c-0.2-0.3-0.5-0.6-0.9-0.8c-0.4-0.2-0.8-0.3-1.3-0.3c-0.4,0-0.9,0.1-1.3,0.3
		c-0.3,0.2-0.6,0.5-0.9,0.8c-0.2,0.3-0.4,0.7-0.5,1.1c-0.2,0.8-0.2,1.7,0,2.5c0.1,0.4,0.3,0.8,0.5,1.1c0.2,0.3,0.5,0.6,0.9,0.8
		c0.4,0.2,0.8,0.3,1.3,0.3c0.4,0,0.9-0.1,1.3-0.3c0.3-0.2,0.6-0.5,0.9-0.8c0.2-0.3,0.4-0.7,0.5-1.1c0.2-0.8,0.2-1.7,0-2.5
		C119.5,73.3,119.4,72.9,119.1,72.6z"/>
	<path class="st0" d="M173.4,72c-0.2-0.1-0.3-0.2-0.5-0.2c-0.2,0-0.4-0.1-0.6-0.1h-2.6v2.8h2.6c0.5,0,0.9-0.1,1.2-0.4
		c0.3-0.2,0.4-0.6,0.4-1.1c0-0.2,0-0.5-0.1-0.7C173.7,72.2,173.6,72.1,173.4,72z"/>
	<path class="st1" d="M0,16.2v54.9c14-3.4,28.6-8.2,43.2-16.2c9.7,5,19.5,9.6,29,12.5c-0.1-7.9,0.1-15.7,0-23.5
		c-9.5-2.8-19.3-7.4-29-12.2c-7.3,3.9-14.9,7.2-22.6,10.1l0-8.7c7.8-2.8,15.3-6,22.7-9.8c12.2,6.2,24.4,11.5,36.3,14.4v40.2
		c-11.9-3.1-24.1-8.1-36.3-14.5C28.6,71.3,14,76.1,0,79.5V87c14-3.4,28.6-8.2,43.2-16.2c14.4,7.5,28.9,13,42.8,16V31.7
		C72,28.9,57.6,23.2,43.2,15.8c-9.4,4.9-19.1,8.9-29.2,12c0,7.9,0,15.7,0,23.6C24,48.2,33.8,44,43.2,39.1c7.4,3.7,15,7.6,22.3,10.1
		c0,2.9,0,5.8,0,8.7c-7.4-2.6-14.8-6.5-22.3-10.3C30.8,54.3,18.4,58.5,6.4,62V22.1c12-3.2,24.4-8.1,36.7-14.7
		C57.6,14.7,72.1,21,85.9,23.8v-7.4C71.9,13.6,57.3,7.2,43.2,0C28.6,7.7,14,13.1,0,16.2z"/>
	<path class="st1" d="M128.7,42.9V22.4h-9.1V44c0,2.3-0.3,3.9-0.9,4.8c-0.8,1.3-2.3,1.9-4.5,1.9c-1.5,0-2.7-0.5-3.6-1.4
		c-0.9-0.9-1.3-2.2-1.3-3.8v-2.3h-9.1v2.1c0,4.4,1.5,7.5,4.6,9.3c2.4,1.5,5.9,2.2,10.4,2.2c5.8,0,9.7-1.6,11.7-4.8
		C128.1,50.1,128.7,47.1,128.7,42.9z"/>
	<path class="st1" d="M169.4,55.9h4.6V37.3h-17.1v5.8l8.1,0c-1,4.9-4.3,7.4-9.9,7.4c-3.8,0-6.7-1.2-8.7-3.7c-1.7-2-2.5-4.6-2.5-7.6
		c0-3,0.8-5.6,2.5-7.6c2-2.5,4.9-3.7,8.7-3.7c4.5,0,7.4,1.8,8.5,5.5h10.1c-1.4-7.9-8-11.9-19.7-11.9c-6.2,0-11.1,1.7-14.6,5
		c-3.4,3.2-5.2,7.4-5.2,12.7c0,11.8,6.6,17.7,19.8,17.7c6.4,0,11.1-1.6,14.1-4.8L169.4,55.9z"/>
	<path class="st1" d="M218.8,43.1h-9.9c-0.4,2.5-1.6,4.4-3.5,5.7c-1.7,1.2-3.7,1.7-6.1,1.7c-3.8,0-6.7-1.3-8.4-3.9
		c-1.3-2-2-4.4-2-7.4c0-2.9,0.7-5.4,2-7.3c1.8-2.6,4.6-3.9,8.4-3.9c2.5,0,4.6,0.6,6.2,1.8c1.8,1.3,2.9,3.1,3.3,5.4h9.8
		c-1.1-9.1-7.6-13.6-19.7-13.6c-13.2,0-19.8,5.9-19.8,17.7c0,11.8,6.6,17.7,19.8,17.7c5.6,0,10.1-1.1,13.4-3.2
		C216.2,51.3,218.3,47.7,218.8,43.1z"/>
	<path class="st1" d="M106.5,77c-0.1,0.3-0.3,0.5-0.5,0.8c-0.2,0.2-0.4,0.4-0.7,0.5c-0.3,0.1-0.6,0.2-0.9,0.2
		c-0.4,0-0.9-0.1-1.3-0.3c-0.3-0.2-0.6-0.5-0.9-0.8c-0.2-0.3-0.4-0.7-0.5-1.1c-0.2-0.8-0.2-1.7,0-2.5c0.1-0.4,0.3-0.8,0.5-1.1
		c0.2-0.3,0.5-0.6,0.9-0.8c0.4-0.2,0.8-0.3,1.3-0.3c0.3,0,0.6,0,0.9,0.1c0.2,0.1,0.5,0.2,0.7,0.4c0.2,0.2,0.3,0.4,0.5,0.6
		c0.1,0.2,0.2,0.5,0.3,0.7l1.6,0c0-0.5-0.2-0.9-0.4-1.3c-0.2-0.4-0.5-0.7-0.8-1c-0.4-0.3-0.8-0.5-1.2-0.6c-0.5-0.1-1-0.2-1.4-0.2
		c-0.6,0-1.3,0.1-1.8,0.4c-0.5,0.2-1,0.6-1.4,1c-0.4,0.4-0.7,1-0.9,1.5c-0.4,1.2-0.4,2.5,0,3.7c0.2,0.6,0.5,1.1,0.9,1.5
		c0.4,0.4,0.8,0.8,1.4,1c0.6,0.3,1.2,0.4,1.8,0.4c0.5,0,1-0.1,1.5-0.3c0.4-0.2,0.9-0.4,1.2-0.8c0.3-0.3,0.6-0.7,0.8-1.2
		c0.2-0.5,0.3-1,0.3-1.5h-1.6C106.6,76.4,106.6,76.7,106.5,77z"/>
	<path class="st1" d="M120.2,71.6c-0.4-0.4-0.8-0.8-1.4-1c-0.6-0.3-1.2-0.4-1.8-0.4c-0.6,0-1.3,0.1-1.8,0.4c-0.5,0.2-1,0.6-1.4,1
		c-0.4,0.4-0.7,1-0.9,1.5c-0.4,1.2-0.4,2.5,0,3.7c0.2,0.6,0.5,1.1,0.9,1.5c0.4,0.4,0.8,0.8,1.4,1c0.6,0.2,1.2,0.4,1.8,0.4
		c0.6,0,1.2-0.1,1.8-0.4c0.5-0.2,1-0.6,1.4-1c0.4-0.4,0.7-1,0.9-1.5c0.4-1.2,0.4-2.5,0-3.7C120.9,72.6,120.6,72.1,120.2,71.6z
		 M119.6,76.2c-0.1,0.4-0.3,0.8-0.5,1.1c-0.2,0.3-0.5,0.6-0.9,0.8c-0.4,0.2-0.8,0.3-1.3,0.3c-0.4,0-0.9-0.1-1.3-0.3
		c-0.3-0.2-0.6-0.5-0.9-0.8c-0.2-0.3-0.4-0.7-0.5-1.1c-0.2-0.8-0.2-1.7,0-2.5c0.1-0.4,0.3-0.8,0.5-1.1c0.2-0.3,0.5-0.6,0.9-0.8
		c0.4-0.2,0.8-0.3,1.3-0.3c0.4,0,0.9,0.1,1.3,0.3c0.3,0.2,0.6,0.5,0.9,0.8c0.2,0.3,0.4,0.7,0.5,1.1
		C119.8,74.5,119.8,75.4,119.6,76.2z"/>
	<polygon class="st1" points="131.1,77.5 131,77.5 128.5,70.4 126.3,70.4 126.3,79.5 127.8,79.5 127.8,72.5 127.8,72.5 130.3,79.5 
		131.6,79.5 134.2,72.5 134.2,72.5 134.2,79.5 135.7,79.5 135.7,70.4 133.5,70.4 	"/>
	<polygon class="st1" points="146.1,77.5 146.1,77.5 143.6,70.4 141.4,70.4 141.4,79.5 142.9,79.5 142.9,72.5 142.9,72.5 
		145.4,79.5 146.7,79.5 149.2,72.5 149.3,72.5 149.3,79.5 150.8,79.5 150.8,70.4 148.6,70.4 	"/>
	<polygon class="st1" points="158.1,75.5 162.7,75.5 162.7,74.2 158.1,74.2 158.1,71.8 163,71.8 163,70.4 156.5,70.4 156.5,79.5 
		163.1,79.5 163.1,78.1 158.1,78.1 	"/>
	<path class="st1" d="M175.3,77.1c0-0.3,0-0.6-0.1-0.9c-0.1-0.2-0.2-0.4-0.3-0.6c-0.1-0.1-0.3-0.2-0.4-0.3c-0.1-0.1-0.3-0.1-0.4-0.1
		v0c0.1,0,0.2-0.1,0.4-0.2c0.2-0.1,0.4-0.2,0.5-0.4c0.2-0.2,0.3-0.4,0.4-0.7c0.1-0.3,0.2-0.7,0.2-1.1c0-0.8-0.2-1.4-0.8-1.8
		c-0.5-0.4-1.3-0.6-2.2-0.6h-4.3l0,9.1h1.6v-3.7h2.3c0.3,0,0.6,0,0.9,0.1c0.2,0.1,0.4,0.2,0.6,0.4c0.1,0.2,0.2,0.5,0.3,0.7
		c0.1,0.4,0.1,0.7,0.1,1.1c0,0.2,0,0.4,0,0.7c0,0.2,0.1,0.5,0.2,0.6h1.7c-0.2-0.3-0.3-0.6-0.4-0.9C175.4,78.1,175.3,77.6,175.3,77.1
		z M173.5,74.2c-0.3,0.2-0.6,0.4-1.2,0.4h-2.6v-2.8h2.6c0.2,0,0.4,0,0.6,0.1c0.2,0,0.4,0.1,0.5,0.2c0.2,0.1,0.3,0.3,0.3,0.4
		c0.1,0.2,0.1,0.5,0.1,0.7C173.9,73.6,173.8,73.9,173.5,74.2z"/>
	<path class="st1" d="M186.6,77c-0.1,0.3-0.3,0.5-0.5,0.8c-0.2,0.2-0.4,0.4-0.7,0.5c-0.3,0.1-0.6,0.2-0.9,0.2
		c-0.4,0-0.9-0.1-1.3-0.3c-0.3-0.2-0.6-0.5-0.9-0.8c-0.2-0.3-0.4-0.7-0.5-1.1c-0.2-0.8-0.2-1.7,0-2.5c0.1-0.4,0.3-0.8,0.5-1.1
		c0.2-0.3,0.5-0.6,0.9-0.8c0.4-0.2,0.8-0.3,1.3-0.3c0.3,0,0.6,0,0.9,0.1c0.2,0.1,0.5,0.2,0.7,0.4c0.2,0.2,0.3,0.4,0.5,0.6
		c0.1,0.2,0.2,0.5,0.3,0.7l1.6,0c0-0.5-0.2-0.9-0.4-1.3c-0.2-0.4-0.5-0.7-0.8-1c-0.4-0.3-0.8-0.5-1.2-0.6c-0.5-0.1-1-0.2-1.4-0.2
		c-0.6,0-1.3,0.1-1.8,0.4c-0.5,0.2-1,0.6-1.4,1c-0.4,0.4-0.7,1-0.9,1.5c-0.4,1.2-0.4,2.5,0,3.7c0.2,0.6,0.5,1.1,0.9,1.5
		c0.4,0.4,0.8,0.8,1.4,1c0.6,0.3,1.2,0.4,1.8,0.4c0.5,0,1-0.1,1.5-0.3c0.4-0.2,0.8-0.4,1.2-0.8c0.3-0.3,0.6-0.7,0.8-1.2
		c0.2-0.5,0.3-1,0.3-1.5h-1.5C186.7,76.4,186.7,76.7,186.6,77z"/>
	<rect x="193.3" y="70.4" class="st1" width="1.6" height="9.1"/>
	<path class="st1" d="M202.7,70.4l-3.5,9.1h1.6l0.9-2.4h3.6l0.9,2.4h1.7l-3.5-9.1H202.7z M202.1,75.9l1.4-3.9h0l1.4,3.9H202.1z"/>
	<polygon class="st1" points="213.8,70.4 212.2,70.4 212.2,79.5 218.4,79.5 218.4,78.1 213.8,78.1 	"/>
</g>
</svg>
