<?xml version="1.0" encoding="utf-8"?>
<!-- Generator: Adobe Illustrator 23.0.0, SVG Export Plug-In . SVG Version: 6.00 Build 0)  -->
<svg version="1.1" id="Layer_1" xmlns="http://www.w3.org/2000/svg" xmlns:xlink="http://www.w3.org/1999/xlink" x="0px" y="0px"
	 viewBox="0 0 102 104" style="enable-background:new 0 0 102 104;" xml:space="preserve">
<style type="text/css">
	.st0{fill:none;}
	.st1{fill:#FFFFFF;}
</style>
<g>
	<path class="st0" d="M53.5,97.8c-0.2-0.3-0.4-0.5-0.7-0.7c-0.3-0.2-0.7-0.3-1.1-0.3c-0.4,0-0.7,0.1-1.1,0.3
		c-0.3,0.2-0.6,0.4-0.7,0.7c-0.2,0.3-0.3,0.6-0.4,1c-0.2,0.7-0.2,1.5,0,2.2c0.1,0.3,0.2,0.7,0.4,1c0.2,0.3,0.4,0.5,0.7,0.7
		c0.3,0.2,0.7,0.3,1.1,0.3s0.7-0.1,1.1-0.3c0.3-0.2,0.6-0.4,0.7-0.7c0.2-0.3,0.3-0.6,0.4-1c0.2-0.7,0.2-1.5,0-2.2
		C53.8,98.5,53.7,98.1,53.5,97.8z"/>
	<path class="st0" d="M43,97.3c-0.1-0.1-0.3-0.1-0.4-0.2c-0.2,0-0.3,0-0.5,0h-2.2v2.4H42c0.4,0,0.8-0.1,1-0.3
		c0.2-0.2,0.3-0.5,0.3-0.9c0-0.2,0-0.4-0.1-0.6C43.2,97.5,43.1,97.4,43,97.3z"/>
	<path class="st0" d="M73.1,97.4c-0.1-0.1-0.3-0.2-0.4-0.2c-0.2,0-0.3-0.1-0.5-0.1h-2v2.6h2c0.2,0,0.3,0,0.5-0.1
		c0.2,0,0.3-0.1,0.4-0.2c0.1-0.1,0.3-0.2,0.3-0.4c0.1-0.2,0.1-0.4,0.1-0.6c0-0.2,0-0.4-0.1-0.6C73.4,97.6,73.3,97.5,73.1,97.4z"/>
	<path class="st1" d="M66.3,35.3c0-4.1,0-8.2,0-12.3c-5-1.5-10.1-3.9-15.2-6.4c-3.8,2-7.8,3.8-11.8,5.3l0-4.6
		c4.1-1.4,8-3.2,11.9-5.1c6.4,3.2,12.8,6,19,7.5v21.1c-6.2-1.6-12.6-4.3-19-7.6c-7.6,4.2-15.3,6.7-22.6,8.5v3.9
		c7.3-1.8,15-4.3,22.6-8.5c7.6,3.9,15.1,6.8,22.4,8.4V16.6c-7.3-1.5-14.8-4.5-22.4-8.3c-4.9,2.5-10,4.6-15.3,6.3h0
		c0,4.1,0,8.2,0,12.3c5.3-1.7,10.4-3.9,15.3-6.5c3.9,2,7.8,4,11.7,5.3c0,1.5,0,3,0,4.5c-3.9-1.4-7.8-3.4-11.7-5.4
		c-6.5,3.5-13,5.8-19.2,7.6V11.6c6.3-1.7,12.8-4.3,19.2-7.7c7.5,3.8,15.1,7.1,22.4,8.6V8.6c-7.3-1.5-15-4.8-22.4-8.6
		c-7.6,4-15.3,6.9-22.6,8.5v28.8c7.4-1.8,15-4.3,22.6-8.5C56.2,31.4,61.3,33.8,66.3,35.3z"/>
	<path class="st1" d="M3.9,84c2.1,1.3,5,1.9,8.9,1.9c5,0,8.3-1.4,10-4.1c1-1.6,1.5-4.2,1.5-7.8V56.4h-7.8v18.5
		c0,1.9-0.3,3.3-0.8,4.1c-0.7,1.1-1.9,1.6-3.8,1.6c-1.3,0-2.3-0.4-3.1-1.2s-1.1-1.9-1.1-3.2v-2H0V76C0,79.8,1.3,82.4,3.9,84z"/>
	<path class="st1" d="M63.2,85.1v-16H48.6v5h6.9c-0.8,4.2-3.7,6.3-8.5,6.3c-3.2,0-5.7-1.1-7.4-3.2c-1.4-1.7-2.1-3.9-2.1-6.5
		s0.7-4.8,2.1-6.5c1.7-2.1,4.2-3.2,7.4-3.2c3.9,0,6.3,1.6,7.3,4.7h8.7c-1.2-6.8-6.8-10.2-16.9-10.2c-5.3,0-9.5,1.4-12.5,4.3
		c-2.9,2.7-4.4,6.4-4.4,10.9c0,10.1,5.7,15.1,17,15.1c5.5,0,9.5-1.4,12.1-4.1l1,3.3H63.2z"/>
	<path class="st1" d="M84.7,85.9c4.8,0,8.6-0.9,11.5-2.8c3.2-2,5-5,5.4-9h-8.5c-0.3,2.1-1.3,3.8-3,4.9c-1.4,1-3.2,1.5-5.2,1.5
		c-3.3,0-5.7-1.1-7.2-3.4c-1.2-1.7-1.7-3.8-1.7-6.3c0-2.5,0.6-4.6,1.7-6.3c1.5-2.3,3.9-3.4,7.2-3.4c2.1,0,3.9,0.5,5.3,1.5
		c1.6,1.1,2.5,2.7,2.9,4.7h8.4c-0.9-7.8-6.5-11.7-16.9-11.6c-11.3,0-16.9,5.1-16.9,15.1C67.8,80.9,73.4,85.9,84.7,85.9z"/>
	<path class="st1" d="M31.4,100.7h2.1c0,0.3-0.1,0.6-0.2,0.9c-0.1,0.3-0.2,0.5-0.4,0.7c-0.2,0.2-0.4,0.3-0.7,0.4
		c-0.3,0.1-0.6,0.2-0.9,0.1c-0.4,0-0.7-0.1-1.1-0.3c-0.3-0.2-0.6-0.4-0.7-0.7c-0.2-0.3-0.3-0.6-0.4-1c-0.2-0.7-0.2-1.5,0-2.2
		c0.1-0.3,0.2-0.7,0.4-1c0.2-0.3,0.4-0.5,0.7-0.7c0.3-0.2,0.7-0.3,1.1-0.3c0.2,0,0.5,0,0.7,0.1c0.2,0.1,0.4,0.2,0.6,0.3
		c0.2,0.1,0.3,0.3,0.5,0.5c0.1,0.2,0.2,0.4,0.2,0.7h1.3c0-0.4-0.2-0.8-0.4-1.2c-0.2-0.3-0.4-0.6-0.7-0.8c-0.3-0.2-0.7-0.4-1-0.5
		c-0.4-0.1-0.8-0.2-1.2-0.2c-0.5,0-1.1,0.1-1.6,0.3c-0.5,0.2-0.9,0.5-1.2,0.9c-0.3,0.4-0.6,0.8-0.7,1.3c-0.3,1-0.3,2.1,0,3.2
		c0.2,0.5,0.4,0.9,0.7,1.3c0.3,0.4,0.7,0.7,1.2,0.9c0.5,0.2,1,0.3,1.6,0.3c0.4,0,0.9-0.1,1.3-0.2c0.4-0.2,0.8-0.5,1.1-0.9l0.2,0.9
		h0.9v-4.1h-3.3V100.7z"/>
	<path class="st1" d="M44.6,101.8c0-0.3,0-0.5-0.1-0.8c-0.1-0.2-0.2-0.4-0.3-0.5c-0.1-0.1-0.2-0.2-0.4-0.3c-0.1-0.1-0.2-0.1-0.4-0.1
		v0c0.1,0,0.2-0.1,0.3-0.1c0.2-0.1,0.3-0.2,0.4-0.3c0.2-0.2,0.3-0.4,0.4-0.6c0.1-0.3,0.2-0.6,0.2-0.9c0-0.7-0.2-1.2-0.6-1.6
		C43.7,96.2,43,96,42.2,96h-3.7v7.8h1.4v-3.2h2c0.3,0,0.5,0,0.8,0.1c0.2,0.1,0.4,0.2,0.5,0.4c0.1,0.2,0.2,0.4,0.2,0.6
		c0,0.3,0.1,0.6,0.1,0.9c0,0.2,0,0.4,0,0.6c0,0.2,0.1,0.4,0.2,0.6h1.5c-0.2-0.2-0.3-0.5-0.3-0.8C44.7,102.6,44.6,102.2,44.6,101.8z
		 M43,99.2c-0.2,0.2-0.6,0.3-1,0.3h-2.2v-2.4H42c0.2,0,0.3,0,0.5,0c0.2,0,0.3,0.1,0.4,0.2c0.1,0.1,0.2,0.2,0.3,0.4
		c0.1,0.2,0.1,0.4,0.1,0.6C43.4,98.7,43.3,99,43,99.2z"/>
	<path class="st1" d="M54.4,97c-0.3-0.4-0.7-0.7-1.2-0.9c-0.5-0.2-1-0.3-1.6-0.3c-0.5,0-1.1,0.1-1.6,0.3c-0.5,0.2-0.9,0.5-1.2,0.9
		c-0.3,0.4-0.6,0.8-0.7,1.3c-0.3,1-0.3,2.1,0,3.2c0.2,0.5,0.4,0.9,0.7,1.3c0.3,0.4,0.7,0.7,1.2,0.9c0.5,0.2,1,0.3,1.6,0.3
		c0.5,0,1.1-0.1,1.6-0.3c0.5-0.2,0.9-0.5,1.2-0.9c0.3-0.4,0.6-0.8,0.7-1.3c0.3-1,0.3-2.1,0-3.2C55,97.8,54.8,97.4,54.4,97z
		 M53.9,101c-0.1,0.3-0.2,0.7-0.4,1c-0.2,0.3-0.4,0.5-0.7,0.7c-0.3,0.2-0.7,0.3-1.1,0.3s-0.7-0.1-1.1-0.3c-0.3-0.2-0.6-0.4-0.7-0.7
		c-0.2-0.3-0.3-0.6-0.4-1c-0.2-0.7-0.2-1.5,0-2.2c0.1-0.3,0.2-0.7,0.4-1c0.2-0.3,0.4-0.5,0.7-0.7c0.3-0.2,0.7-0.3,1.1-0.3
		c0.4,0,0.7,0.1,1.1,0.3c0.3,0.2,0.6,0.4,0.7,0.7c0.2,0.3,0.3,0.6,0.4,1C54.1,99.5,54.1,100.3,53.9,101z"/>
	<path class="st1" d="M63.7,100.5c0,0.3,0,0.5,0,0.8c0,0.3-0.1,0.5-0.2,0.7c-0.1,0.2-0.3,0.4-0.5,0.5c-0.3,0.1-0.7,0.2-1,0.2
		s-0.7-0.1-1-0.2c-0.2-0.1-0.4-0.3-0.5-0.5c-0.1-0.2-0.2-0.5-0.2-0.7c0-0.3,0-0.5,0-0.8V96h-1.4v5c0,0.4,0.1,0.9,0.2,1.3
		c0.1,0.4,0.4,0.7,0.7,0.9c0.3,0.3,0.6,0.5,1,0.6c0.9,0.2,1.8,0.2,2.6,0c0.4-0.1,0.7-0.3,1-0.6c0.3-0.3,0.5-0.6,0.7-0.9
		c0.2-0.4,0.2-0.9,0.2-1.3v-5h-1.4L63.7,100.5z"/>
	<path class="st1" d="M74.4,96.8c-0.2-0.3-0.5-0.5-0.8-0.6C73.2,96,72.7,96,72.2,96h-3.5v7.8h1.4v-3h2.1c0.5,0,0.9-0.1,1.4-0.2
		c0.3-0.1,0.6-0.3,0.8-0.6c0.2-0.2,0.3-0.5,0.4-0.8c0.1-0.3,0.1-0.5,0.1-0.8c0-0.3,0-0.5-0.1-0.8C74.7,97.3,74.6,97.1,74.4,96.8z
		 M73.4,99c-0.1,0.2-0.2,0.3-0.3,0.4c-0.1,0.1-0.3,0.2-0.4,0.2c-0.2,0-0.3,0.1-0.5,0.1h-2v-2.6h2c0.2,0,0.3,0,0.5,0.1
		c0.2,0,0.3,0.1,0.4,0.2c0.1,0.1,0.2,0.2,0.3,0.4c0.1,0.2,0.1,0.4,0.1,0.6C73.5,98.6,73.5,98.8,73.4,99z"/>
	<rect x="77.8" y="99" class="st1" width="24.2" height="0.9"/>
	<rect x="0.3" y="99" class="st1" width="24.2" height="0.9"/>
</g>
</svg>
