<?xml version="1.0" encoding="utf-8"?>
<!-- Generator: Adobe Illustrator 23.0.0, SVG Export Plug-In . SVG Version: 6.00 Build 0)  -->
<svg version="1.1" id="Layer_1" xmlns="http://www.w3.org/2000/svg" xmlns:xlink="http://www.w3.org/1999/xlink" x="0px" y="0px"
	 viewBox="0 0 42 42" style="enable-background:new 0 0 42 42;" xml:space="preserve">
<style type="text/css">
	.st0{fill:none;}
	.st1{fill:#FFFFFF;}
</style>
<g>
	<path class="st0" d="M13.3,17.2C13.3,17.2,13.3,17.2,13.3,17.2c-1.6,0-2.8,1.2-2.8,2.7s1.2,2.7,2.7,2.7c1.5,0,2.7-1.2,2.7-2.7
		C16,18.4,14.8,17.2,13.3,17.2z"/>
	<path class="st0" d="M6.5,29.2C6.1,29.2,6,29.4,6,30v0.9h1v-1C6.9,29.5,6.9,29.2,6.5,29.2z"/>
	<path class="st0" d="M12.6,26.1h-1.5v4.7h1.5c0.6,0,1.3-0.2,1.8-0.6c0.5-0.4,0.7-1.1,0.7-1.7c0-0.6-0.2-1.3-0.7-1.7
		C13.9,26.4,13.3,26.1,12.6,26.1z"/>
	<path class="st0" d="M7.7,29.2c-0.4,0-0.6,0.2-0.6,0.8v1h1.1v-1C8.3,29.4,8.1,29.2,7.7,29.2z"/>
	<path class="st0" d="M21,0.2C9.5,0.2,0.2,9.5,0.2,21c0,11.5,9.3,20.8,20.8,20.8S41.8,32.5,41.8,21C41.8,9.5,32.5,0.2,21,0.2z
		 M8.5,29.9v1.3H5.7V30c0-0.6,0.2-1,0.7-1c0.3,0,0.6,0.2,0.6,0.6c0-0.4,0.3-0.7,0.7-0.7C8.3,28.9,8.6,29.2,8.5,29.9L8.5,29.9z
		 M8.6,27.4H7.3l-1.6,1.3v-0.3l1.4-1.1l-1.4-1.1v-0.3l1.6,1.3h1.2V27.4z M7.4,23.1L7.4,23.1c-0.6,0-1.2-0.2-1.6-0.6V22
		c0.7,0.5,1.1,0.7,1.6,0.7c0.7,0,1.3-0.5,1.3-1.2v0c0-1.8-2.9-1-2.9-3c0-0.9,0.8-1.7,1.8-1.6c0.5,0,1,0.2,1.4,0.4v0.5
		c-0.6-0.4-1-0.5-1.4-0.5c-0.7-0.1-1.3,0.5-1.3,1.1v0c0,1.7,2.9,0.9,2.9,3C9.2,22.3,8.4,23.1,7.4,23.1z M14.8,30.4
		c-0.6,0.6-1.3,0.8-2.1,0.8h-2v-5.4h1.9c1,0,1.7,0.2,2.2,0.8c0.5,0.5,0.8,1.2,0.8,1.9C15.6,29.2,15.3,29.9,14.8,30.4z M13.5,23
		c-0.1,0-0.1,0-0.2,0c-1.8,0.1-3.2-1.3-3.3-3.1c-0.1-1.8,1.3-3.2,3.1-3.3c0.1,0,0.1,0,0.2,0c1.8,0,3.2,1.3,3.3,3.1
		C16.6,21.5,15.2,23,13.5,23z M19.6,31.2h-3v-5.4h2.9v0.3H17v2.2h2.5v0.4H17v2.2h2.6V31.2z M20.7,22.6c0.8,0,1.5-0.2,2.2-0.6v0.5
		c-0.7,0.4-1.4,0.6-2.2,0.6c-1.9,0-3.3-1.4-3.3-3.2c0-1.8,1.4-3.2,3.2-3.2c0,0,0,0,0.1,0c0.8,0,1.5,0.2,2.2,0.5v0.5
		c-0.7-0.4-1.4-0.6-2.2-0.6c-1.5,0-2.7,1.1-2.7,2.6c0,0,0,0.1,0,0.1C17.9,21.5,19.1,22.6,20.7,22.6z M22.7,30.9
		c-0.3,0.3-0.7,0.4-1.1,0.4c-0.5,0-1-0.2-1.4-0.5v-0.5c0.4,0.3,0.9,0.6,1.4,0.6c0.3,0,0.6-0.1,0.8-0.3c0.2-0.2,0.3-0.5,0.3-0.8
		c0-0.2-0.1-0.4-0.2-0.6c-0.2-0.2-0.5-0.4-0.8-0.5c-0.3-0.1-0.6-0.2-0.9-0.4c-0.2-0.1-0.3-0.3-0.5-0.5c-0.1-0.2-0.2-0.5-0.2-0.7
		c0-0.4,0.2-0.8,0.5-1c0.3-0.3,0.7-0.4,1.1-0.4c0.4,0,0.9,0.1,1.3,0.3v0.5c-0.3-0.2-0.8-0.4-1.2-0.4c-0.3,0-0.6,0.1-0.8,0.3
		c-0.2,0.2-0.3,0.5-0.3,0.7c0,0.2,0.1,0.4,0.2,0.6c0.2,0.2,0.5,0.4,0.8,0.5c0.3,0.1,0.6,0.2,0.9,0.4c0.2,0.1,0.4,0.2,0.5,0.5
		c0.2,0.2,0.2,0.5,0.2,0.8C23.2,30.2,23,30.6,22.7,30.9z M24.6,31.2h-0.4v-5.4h0.4V31.2z M23.9,23v-6.2h0.5V23H23.9z M28.8,19.7v0.4
		H26v2.5h3V23h-3.4v-6.2h3.4v0.4H26v2.5H28.8z M30.4,30.8c-0.6,0.3-1.2,0.5-1.9,0.5c-0.8,0-1.5-0.3-2.1-0.8c-1.1-1-1.1-2.8,0-3.9
		l0,0c0.6-0.6,1.3-0.8,2.1-0.8c0.6,0,1.3,0.2,1.8,0.5h0v0.5c-0.6-0.4-1.2-0.6-1.9-0.6c-1.4,0-2.4,1.1-2.4,2.5c0,0.6,0.2,1.2,0.7,1.6
		c0.5,0.5,1.2,0.7,1.8,0.7c0.5,0,1-0.1,1.5-0.3v-1.4h-1.1v-0.3h1.5V30.8z M31,16.8h0.6l2.1,2.5l2.1-2.5h0.6l-2.4,2.9V23h-0.5v-3.3
		L31,16.8z M36.3,31.2H36l-4.1-4.7v4.7h-0.4v-5.4h0.3l4.1,4.7v-4.7h0.4V31.2z M36.3,14.3h-5.8V23h-0.5v-8.7H5.7v-0.4h24.4v-3.2h0.5
		v3.2h5.8V14.3z"/>
	<path class="st1" d="M12.6,25.8h-1.9v5.4h2c0.8,0.1,1.6-0.2,2.1-0.8c0.5-0.5,0.8-1.2,0.7-1.9c0-0.7-0.2-1.4-0.8-1.9
		C14.3,26.1,13.5,25.8,12.6,25.8z M14.4,30.2c-0.5,0.4-1.1,0.7-1.8,0.6h-1.5v-4.7h1.5c0.6,0,1.3,0.2,1.8,0.6c0.5,0.4,0.7,1,0.7,1.7
		C15.1,29.1,14.9,29.8,14.4,30.2z"/>
	<polygon class="st1" points="17,28.7 19.4,28.7 19.4,28.3 17,28.3 17,26.1 19.5,26.1 19.5,25.8 16.6,25.8 16.6,31.2 19.6,31.2 
		19.6,30.8 17,30.8 	"/>
	<path class="st1" d="M22.5,28.6c-0.3-0.2-0.6-0.3-0.9-0.4c-0.3-0.1-0.6-0.2-0.8-0.5c-0.1-0.2-0.2-0.4-0.2-0.6
		c0-0.3,0.1-0.6,0.3-0.7c0.2-0.2,0.5-0.3,0.8-0.3c0.4,0,0.9,0.2,1.2,0.4v-0.5c-0.4-0.2-0.8-0.3-1.3-0.3c-0.4,0-0.8,0.2-1.1,0.4
		c-0.3,0.2-0.5,0.6-0.5,1c0,0.2,0.1,0.5,0.2,0.7c0.1,0.2,0.3,0.3,0.5,0.5c0.3,0.2,0.6,0.3,0.9,0.4c0.3,0.1,0.6,0.3,0.8,0.5
		c0.1,0.2,0.2,0.4,0.2,0.6c0,0.3-0.1,0.6-0.3,0.8c-0.2,0.2-0.5,0.3-0.8,0.3c-0.5,0-1-0.2-1.4-0.6v0.5c0.4,0.3,0.9,0.5,1.4,0.5
		c0.4,0,0.8-0.2,1.1-0.4c0.3-0.3,0.5-0.6,0.5-1c0-0.3-0.1-0.5-0.2-0.8C22.9,28.8,22.7,28.7,22.5,28.6z"/>
	<rect x="24.1" y="25.8" class="st1" width="0.4" height="5.4"/>
	<path class="st1" d="M28.9,29.1H30v1.4c-0.5,0.2-1,0.3-1.5,0.3c-0.7,0-1.4-0.2-1.8-0.7c-0.4-0.4-0.7-1-0.7-1.6c0-1.3,1-2.4,2.4-2.5
		c0.7,0,1.3,0.2,1.9,0.6v-0.5h0c-0.6-0.3-1.2-0.4-1.8-0.5c-0.8,0-1.5,0.2-2.1,0.8l0,0c-1.1,1.1-1,2.9,0,3.9c0.6,0.5,1.3,0.8,2.1,0.8
		c0.7,0,1.3-0.2,1.9-0.5v-2.1h-1.5V29.1z"/>
	<polygon class="st1" points="35.9,30.5 31.8,25.8 31.5,25.8 31.5,31.2 31.9,31.2 31.9,26.5 36,31.2 36.3,31.2 36.3,25.8 35.9,25.8 
			"/>
	<path class="st1" d="M7.8,28.9c-0.4,0-0.7,0.3-0.7,0.7c0-0.3-0.3-0.6-0.6-0.6c-0.5,0-0.7,0.4-0.7,1v1.2h2.8v-1.3v0
		C8.6,29.2,8.3,28.9,7.8,28.9z M6.9,30.9H6V30c0-0.6,0.2-0.7,0.5-0.7c0.4,0,0.5,0.3,0.5,0.6V30.9z M8.3,30.9H7.2v-1
		c0-0.6,0.2-0.8,0.6-0.8s0.6,0.2,0.6,0.7V30.9z"/>
	<polygon class="st1" points="5.8,25.8 5.8,26.1 7.1,27.2 5.8,28.3 5.8,28.6 7.3,27.4 8.6,27.4 8.6,27.1 7.3,27.1 	"/>
	<path class="st1" d="M6.2,18.3L6.2,18.3c0-0.7,0.6-1.2,1.3-1.2c0.4,0,0.8,0.1,1.4,0.5v-0.5c-0.4-0.2-0.9-0.4-1.4-0.4
		c-1,0-1.8,0.7-1.8,1.6c0,2,2.9,1.3,2.9,3v0c0,0.7-0.6,1.2-1.3,1.2c-0.5,0-0.9-0.2-1.6-0.7v0.6c0.5,0.3,1,0.5,1.6,0.6h0
		c1,0,1.8-0.7,1.8-1.7C9.2,19.2,6.2,20,6.2,18.3z"/>
	<path class="st1" d="M13.3,16.7c-0.1,0-0.1,0-0.2,0C11.3,16.8,10,18.2,10,20c0.1,1.8,1.5,3.1,3.3,3.1c0.1,0,0.1,0,0.2,0
		c1.8-0.1,3.1-1.5,3.1-3.3C16.5,18,15,16.7,13.3,16.7z M13.3,22.6c-1.5,0-2.7-1.2-2.7-2.7s1.2-2.7,2.7-2.7c0,0,0,0,0.1,0
		c1.5,0,2.7,1.2,2.7,2.7C16,21.4,14.8,22.6,13.3,22.6z"/>
	<path class="st1" d="M20.7,17.2c0.8,0,1.5,0.2,2.2,0.6v-0.5c-0.7-0.3-1.4-0.5-2.2-0.5c0,0,0,0-0.1,0c-1.8,0-3.2,1.4-3.2,3.2
		c0,1.8,1.4,3.2,3.3,3.2c0.8,0,1.5-0.2,2.2-0.6V22c-0.7,0.4-1.4,0.6-2.2,0.6c-1.6,0-2.8-1.1-2.8-2.7c0,0,0-0.1,0-0.1
		C18,18.3,19.2,17.1,20.7,17.2z"/>
	<rect x="23.9" y="16.8" class="st1" width="0.5" height="6.2"/>
	<polygon class="st1" points="28.9,17.2 28.9,16.8 25.5,16.8 25.5,23 28.9,23 28.9,22.6 26,22.6 26,20.1 28.8,20.1 28.8,19.7 
		26,19.7 26,17.2 	"/>
	<polygon class="st1" points="30.6,10.8 30.1,10.8 30.1,13.9 5.7,13.9 5.7,14.3 30.1,14.3 30.1,23 30.6,23 30.6,14.3 36.3,14.3 
		36.3,13.9 30.6,13.9 	"/>
	<polygon class="st1" points="33.9,23 33.9,19.7 36.3,16.8 35.7,16.8 33.7,19.3 31.6,16.8 31,16.8 33.4,19.7 33.4,23 	"/>
	<path class="st1" d="M21,0C9.4,0,0,9.4,0,21c0,11.4,9.1,20.7,20.4,21h1.2c11.1-0.3,20-9.3,20.4-20.4v-1.2C41.7,9.1,32.4,0,21,0z
		 M21,41.8C9.6,41.8,0.2,32.4,0.2,21C0.2,9.5,9.5,0.2,21,0.2c11.5,0,20.7,9.3,20.8,20.8C41.8,32.5,32.5,41.8,21,41.8z"/>
</g>
</svg>
