<?xml version="1.0" encoding="utf-8"?>
<!-- Generator: Adobe Illustrator 23.0.0, SVG Export Plug-In . SVG Version: 6.00 Build 0)  -->
<svg version="1.1" id="Layer_1" xmlns="http://www.w3.org/2000/svg" xmlns:xlink="http://www.w3.org/1999/xlink" x="0px" y="0px"
	 viewBox="0 0 20 20" style="enable-background:new 0 0 20 20;" xml:space="preserve">
<style type="text/css">
	.st0{fill:none;}
</style>
<g>
	<polygon class="st0" points="19.1,6.7 17,5.2 17,8.4 	"/>
	<path class="st0" d="M11,7C11,7,11,6.9,11,7c-0.1-0.3-0.2-0.5-0.4-0.7C10.3,6,9.9,5.9,9.5,6.1C9.1,6.3,8.8,6.6,8.6,7
		C8.6,7.2,8.5,7.3,8.5,7.5c-0.1,0.4-0.1,1,0.3,1.3c0.4,0.3,1,0.2,1.4-0.1c0.3-0.2,0.5-0.5,0.7-0.8C10.9,7.5,10.9,7.2,11,7z"/>
	<path class="st0" d="M11.3,1.1c-0.7-0.6-1.8-0.6-2.6,0L8,1.7H12L11.3,1.1z"/>
	<polygon class="st0" points="12.4,13.2 19.3,19 19.3,7.4 	"/>
	<polygon class="st0" points="3,5.2 0.9,6.7 3,8.4 	"/>
	<path class="st0" d="M11.7,13.7c-1,0.8-2.4,0.8-3.4,0l-0.1-0.1l-6.9,5.7h17.5l-6.9-5.7L11.7,13.7z"/>
	<polygon class="st0" points="0.7,7.4 0.7,19 7.6,13.2 	"/>
	<path class="st0" d="M8.7,13.2c0.7,0.6,1.8,0.6,2.5,0L16.3,9V2.3c0,0,0,0,0,0H3.7c0,0,0,0,0,0l0,6.7L8.7,13.2z M7.3,5
		c0.1-0.1,0.2-0.2,0.4-0.3c1.1-0.9,2.5-1.2,3.9-0.8c1.3,0.4,2.2,1.6,2.3,3c0,0.8-0.2,1.6-0.7,2.2c-0.4,0.5-1,0.7-1.6,0.6
		c-0.3-0.1-0.5-0.2-0.6-0.4c0,0,0-0.1,0-0.1c0,0-0.1,0.1-0.1,0.1c-0.4,0.3-0.8,0.5-1.3,0.5c-0.4,0-0.7-0.1-1-0.3
		c-0.6-0.5-0.7-1.4-0.5-2C7.9,7.1,8,6.9,8.1,6.7c0.3-0.5,0.6-0.9,1.1-1.2c0.6-0.3,1.4-0.2,1.9,0.3c0,0.1,0.1,0.1,0.1,0.2
		c0-0.2,0.1-0.3,0.1-0.3c0-0.1,0.1-0.2,0.2-0.3c0.1,0,0.2,0,0.3,0.1c0.1,0.1,0.1,0.2,0.1,0.3c0,0.1-0.3,1.7-0.6,2.8
		c0,0.1,0,0.1,0,0.2c0,0.1,0.1,0.1,0.2,0.1c0.4,0.1,0.8-0.1,1-0.4c0.4-0.5,0.6-1.1,0.6-1.7c0-1.1-0.7-2-1.8-2.4
		c-1.1-0.3-2.3,0-3.2,0.7C7.9,5.2,7.8,5.3,7.7,5.4C7.2,5.9,6.4,7,6.7,8.3c0.2,0.9,0.9,1.7,1.8,2c1.6,0.5,3.8,0.6,5-0.9
		c0.1-0.1,0.3-0.2,0.5,0C14,9.5,14,9.7,13.9,9.9c-0.9,1.1-2.2,1.5-3.5,1.5c-0.7,0-1.5-0.1-2.2-0.3c-1.1-0.4-2-1.3-2.2-2.5
		C5.7,7.3,6.2,6,7.3,5z"/>
	<path d="M8.2,11c0.7,0.2,1.5,0.3,2.2,0.3c1.3,0,2.6-0.4,3.5-1.5C14,9.7,14,9.5,13.9,9.4c-0.1-0.1-0.3-0.1-0.5,0
		c-1.2,1.5-3.4,1.4-5,0.9c-0.9-0.3-1.6-1.1-1.8-2C6.4,7,7.2,5.9,7.7,5.4C7.8,5.3,7.9,5.2,8,5.2c0.9-0.8,2.1-1,3.2-0.7
		c1,0.3,1.8,1.3,1.8,2.4c0,0.6-0.2,1.2-0.6,1.7c-0.2,0.3-0.6,0.5-1,0.4c-0.1,0-0.1-0.1-0.2-0.1c0-0.1,0-0.1,0-0.2
		c0.3-1.1,0.6-2.8,0.6-2.8c0-0.1,0-0.2-0.1-0.3c-0.1-0.1-0.2-0.1-0.3-0.1c-0.1,0-0.2,0.1-0.2,0.3c0,0,0,0.1-0.1,0.3
		c0-0.1-0.1-0.1-0.1-0.2c-0.5-0.5-1.2-0.6-1.9-0.3C8.7,5.8,8.3,6.2,8.1,6.7C8,6.9,7.9,7.1,7.8,7.3c-0.2,0.6-0.2,1.5,0.5,2
		c0.3,0.2,0.6,0.3,1,0.3c0.5,0,0.9-0.2,1.3-0.5c0,0,0.1-0.1,0.1-0.1c0,0,0,0.1,0,0.1c0.1,0.2,0.4,0.4,0.6,0.4C12,9.7,12.6,9.4,13,9
		c0.5-0.6,0.8-1.4,0.7-2.2c0-1.4-0.9-2.6-2.3-3c-1.3-0.4-2.8-0.1-3.9,0.8C7.5,4.7,7.4,4.8,7.3,5C6.2,6,5.7,7.3,6,8.5
		C6.2,9.6,7.1,10.6,8.2,11z M10.1,8.6c-0.4,0.3-1,0.5-1.4,0.1C8.4,8.5,8.3,7.9,8.5,7.5c0-0.2,0.1-0.3,0.2-0.5
		c0.2-0.4,0.5-0.7,0.9-0.9c0.4-0.2,0.8-0.1,1.1,0.2c0.2,0.2,0.3,0.4,0.4,0.7c0,0,0,0,0,0c-0.1,0.3-0.1,0.6-0.2,0.8
		C10.6,8.1,10.4,8.4,10.1,8.6z"/>
	<path d="M20,6.6C20,6.6,20,6.6,20,6.6c0-0.1-0.1-0.1-0.1-0.2c0,0,0,0,0,0l-2.9-2v-2c0-0.4-0.3-0.7-0.7-0.7h-3.1l-1.5-1.1
		C11.2,0.2,10.6,0,10,0h0C9.4,0,8.8,0.2,8.3,0.6L6.8,1.7H3.7C3.3,1.7,3,2,3,2.3v2l-2.9,2c0,0,0,0,0,0c0,0-0.1,0.1-0.1,0.1
		c0,0,0,0.1,0,0.1c0,0,0,0,0,0.1V19c0,0.2,0.1,0.4,0.2,0.6c0,0,0,0,0,0c0,0.1,0.1,0.1,0.1,0.1c0,0,0,0,0,0C0.6,19.9,0.8,20,1,20h18
		c0.2,0,0.4-0.1,0.6-0.2c0,0,0,0,0,0c0,0,0.1-0.1,0.1-0.1c0,0,0,0,0,0c0.1-0.2,0.2-0.4,0.2-0.6L20,6.6C20,6.6,20,6.6,20,6.6z
		 M12.4,13.2l7-5.8V19L12.4,13.2z M19.1,6.7L17,8.4V5.2L19.1,6.7z M8.7,1.1c0.7-0.6,1.8-0.6,2.6,0L12,1.7H8L8.7,1.1z M3.7,2.3h12.6
		c0,0,0,0,0,0V9l-5.1,4.2c-0.7,0.6-1.8,0.6-2.5,0L3.7,9L3.7,2.3C3.7,2.3,3.7,2.3,3.7,2.3z M0.7,19V7.4l7,5.8L0.7,19z M3,5.2v3.3
		L0.9,6.7L3,5.2z M1.3,19.3l6.9-5.7l0.1,0.1c1,0.8,2.4,0.8,3.4,0l0.1-0.1l6.9,5.7H1.3z"/>
</g>
</svg>
