<?xml version="1.0" encoding="utf-8"?>
<!-- Generator: Adobe Illustrator 23.0.0, SVG Export Plug-In . SVG Version: 6.00 Build 0)  -->
<svg version="1.1" id="Layer_1" xmlns="http://www.w3.org/2000/svg" xmlns:xlink="http://www.w3.org/1999/xlink" x="0px" y="0px"
	 viewBox="0 0 14.4 14.4" style="enable-background:new 0 0 14.4 14.4;" xml:space="preserve">
<style type="text/css">
	.st0{fill:none;}
	.st1{fill:#151515;}
</style>
<g>
	<path class="st0" d="M11.4,2.7c-0.2,0-0.4,0.2-0.4,0.4s0.2,0.4,0.4,0.4s0.4-0.2,0.4-0.4S11.6,2.7,11.4,2.7z"/>
	<path class="st0" d="M7.2,4.1c-1.7,0-3.1,1.4-3.1,3.1c0,1.7,1.4,3.1,3.1,3.1c1.7,0,3.1-1.4,3.1-3.1S8.9,4.1,7.2,4.1z"/>
	<path class="st0" d="M10.5,0.9H4C2.2,0.9,0.9,2.2,0.9,4v6.5c0,1.7,1.4,3.1,3.1,3.1h6.5c1.7,0,3.1-1.4,3.1-3.1V4
		C13.6,2.2,12.2,0.9,10.5,0.9z M7.2,11.2c-2.2,0-4-1.8-4-4s1.8-4,4-4s4,1.8,4,4C11.2,9.4,9.4,11.2,7.2,11.2z M11.4,4.2
		c-0.7,0-1.2-0.5-1.2-1.2c0-0.7,0.5-1.2,1.2-1.2s1.2,0.5,1.2,1.2S12.1,4.2,11.4,4.2z"/>
	<path class="st1" d="M10.5,0H4C1.8,0,0,1.8,0,4v6.5c0,2.2,1.8,4,4,4h6.5c2.2,0,4-1.8,4-4V4C14.4,1.8,12.7,0,10.5,0z M13.6,10.5
		c0,1.7-1.4,3.1-3.1,3.1H4c-1.7,0-3.1-1.4-3.1-3.1V4c0-1.7,1.4-3.1,3.1-3.1h6.5c1.7,0,3.1,1.4,3.1,3.1V10.5z"/>
	<path class="st1" d="M7.2,3.3c-2.2,0-4,1.8-4,4s1.8,4,4,4c2.2,0,4-1.8,4-4C11.2,5,9.4,3.3,7.2,3.3z M7.2,10.3
		c-1.7,0-3.1-1.4-3.1-3.1c0-1.7,1.4-3.1,3.1-3.1c1.7,0,3.1,1.4,3.1,3.1S8.9,10.3,7.2,10.3z"/>
	<path class="st1" d="M11.4,1.8c-0.7,0-1.2,0.5-1.2,1.2c0,0.7,0.5,1.2,1.2,1.2s1.2-0.5,1.2-1.2S12.1,1.8,11.4,1.8z M11.4,3.4
		c-0.2,0-0.4-0.2-0.4-0.4s0.2-0.4,0.4-0.4s0.4,0.2,0.4,0.4S11.6,3.4,11.4,3.4z"/>
</g>
</svg>
