<?xml version="1.0" encoding="utf-8"?>
<!-- Generator: Adobe Illustrator 23.0.0, SVG Export Plug-In . SVG Version: 6.00 Build 0)  -->
<svg version="1.1" id="Layer_1" xmlns="http://www.w3.org/2000/svg" xmlns:xlink="http://www.w3.org/1999/xlink" x="0px" y="0px"
	 viewBox="0 0 17.8 21" style="enable-background:new 0 0 17.8 21;" xml:space="preserve">
<style type="text/css">
	.st0{fill:none;}
</style>
<g>
	<path class="st0" d="M8.9,1.2c-4.2,0-7.7,3.4-7.7,7.7c0,4.2,4.3,8,6.6,10c0.3,0.3,0.6,0.6,0.9,0.8c0.1,0.1,0.3,0.1,0.4,0
		c0.2-0.2,0.5-0.5,0.9-0.8c2.3-2,6.6-5.8,6.6-10C16.5,4.7,13.1,1.2,8.9,1.2z M8.9,12.5C6.7,12.5,5,10.7,5,8.5s1.8-3.9,3.9-3.9
		c2.2,0,3.9,1.8,3.9,3.9S11,12.5,8.9,12.5z"/>
	<path class="st0" d="M8.9,5.9c-1.5,0-2.7,1.2-2.7,2.7s1.2,2.7,2.7,2.7s2.7-1.2,2.7-2.7S10.4,5.9,8.9,5.9z"/>
	<path d="M15.2,2.6C13.5,0.9,11.3,0,8.9,0C6.5,0,4.3,0.9,2.6,2.6C0.9,4.3,0,6.5,0,8.9c0,4.8,4.5,8.8,7,10.9c0.3,0.3,0.6,0.6,0.9,0.8
		c0.3,0.3,0.7,0.4,1,0.4c0.4,0,0.7-0.1,1-0.4c0.2-0.2,0.5-0.5,0.9-0.8c2.4-2.1,7-6.1,7-10.9C17.8,6.5,16.8,4.3,15.2,2.6z M10,18.9
		c-0.3,0.3-0.6,0.6-0.9,0.8c-0.1,0.1-0.3,0.1-0.4,0c-0.2-0.2-0.5-0.5-0.9-0.8c-2.3-2-6.6-5.8-6.6-10c0-4.2,3.4-7.7,7.7-7.7
		c4.2,0,7.7,3.4,7.7,7.7C16.5,13.1,12.3,16.9,10,18.9z"/>
	<path d="M8.9,4.6C6.7,4.6,5,6.4,5,8.5s1.8,3.9,3.9,3.9c2.2,0,3.9-1.8,3.9-3.9S11,4.6,8.9,4.6z M8.9,11.2c-1.5,0-2.7-1.2-2.7-2.7
		s1.2-2.7,2.7-2.7s2.7,1.2,2.7,2.7S10.4,11.2,8.9,11.2z"/>
</g>
</svg>
