<?xml version="1.0" encoding="utf-8"?>
<!-- Generator: Adobe Illustrator 23.0.0, SVG Export Plug-In . SVG Version: 6.00 Build 0)  -->
<svg version="1.1" id="Layer_1" xmlns="http://www.w3.org/2000/svg" xmlns:xlink="http://www.w3.org/1999/xlink" x="0px" y="0px"
	 viewBox="0 0 20 20" style="enable-background:new 0 0 20 20;" xml:space="preserve">
<style type="text/css">
	.st0{fill:none;}
	.st1{fill:#0E171F;}
</style>
<g>
	<path class="st0" d="M15,13.2C15,13.2,15,13.2,15,13.2c-0.1-0.2-0.4-0.3-0.6-0.3c-0.3,0-0.5,0.2-0.6,0.3l-1.4,1.4
		c-0.1,0.1-0.3,0.3-0.6,0.3c-0.1,0-0.3,0-0.4-0.1c0,0,0,0-0.1,0c-0.1-0.1-0.3-0.1-0.4-0.2c-0.2-0.1-0.3-0.2-0.5-0.3
		c-1.4-0.9-2.6-2-3.7-3.4l0,0c-0.6-0.8-1.1-1.5-1.4-2.2c0,0,0,0,0,0C5,8.4,5,8,5.3,7.6c0,0,0,0,0,0C5.7,7.3,6,7,6.4,6.6
		c0.1-0.1,0.2-0.2,0.4-0.4c0.4-0.4,0.4-0.9,0-1.3L5.6,3.8C5.5,3.6,5.3,3.5,5.2,3.4C5,3.1,4.7,2.8,4.4,2.6c0,0,0,0,0,0
		C4.3,2.5,4.1,2.3,3.8,2.3c-0.2,0-0.4,0.1-0.6,0.3L1.7,4C1.4,4.4,1.2,4.8,1.2,5.3C1.1,6.1,1.2,6.9,1.6,7.9c0.6,1.7,1.6,3.3,3,5.1
		c1.7,2.1,3.8,3.7,6.2,4.9c0.9,0.4,2,0.9,3.3,1c0.1,0,0.1,0,0.2,0c0.7,0,1.2-0.2,1.6-0.7c0.3-0.3,0.5-0.6,0.8-0.8
		c0.2-0.2,0.4-0.3,0.5-0.5c0.4-0.4,0.4-0.9,0-1.3L15,13.2z"/>
	<path class="st1" d="M15.8,12.4c-0.4-0.4-0.9-0.7-1.4-0.7c-0.5,0-1,0.2-1.4,0.7l-1.3,1.3c-0.1-0.1-0.2-0.1-0.3-0.2
		c-0.2-0.1-0.3-0.1-0.4-0.2c-1.2-0.8-2.4-1.8-3.5-3.2C6.8,9.5,6.5,8.9,6.2,8.4c0.3-0.3,0.7-0.6,1-1C7.3,7.3,7.4,7.2,7.6,7
		c0.9-0.9,0.9-2,0-2.9L6.4,3C6.3,2.8,6.1,2.7,6,2.6C5.8,2.3,5.5,2,5.2,1.8C4.8,1.4,4.3,1.2,3.8,1.2c-0.5,0-1,0.2-1.4,0.6
		c0,0,0,0,0,0L0.9,3.2C0.4,3.8,0.1,4.4,0,5.2c-0.1,1.2,0.3,2.4,0.5,3.1c0.7,1.8,1.7,3.6,3.2,5.4c1.8,2.2,4.1,4,6.6,5.2
		c1,0.5,2.3,1,3.7,1.1c0.1,0,0.2,0,0.3,0c1,0,1.8-0.4,2.4-1c0,0,0,0,0,0c0.2-0.3,0.5-0.5,0.7-0.8c0.2-0.2,0.4-0.4,0.5-0.5
		c0.4-0.4,0.6-0.9,0.6-1.5c0-0.5-0.2-1-0.7-1.4L15.8,12.4z M17.3,16.8c-0.2,0.2-0.3,0.3-0.5,0.5c-0.3,0.3-0.6,0.5-0.8,0.8
		c-0.4,0.5-0.9,0.7-1.6,0.7c-0.1,0-0.1,0-0.2,0c-1.3-0.1-2.4-0.6-3.3-1c-2.4-1.2-4.5-2.8-6.2-4.9c-1.4-1.7-2.4-3.3-3-5.1
		C1.2,6.9,1.1,6.1,1.2,5.3c0-0.5,0.2-0.9,0.6-1.3l1.4-1.4c0.2-0.2,0.4-0.3,0.6-0.3c0.3,0,0.5,0.2,0.6,0.3c0,0,0,0,0,0
		C4.7,2.8,5,3.1,5.2,3.4c0.1,0.1,0.3,0.3,0.4,0.4l1.2,1.2c0.4,0.4,0.4,0.9,0,1.3C6.6,6.4,6.5,6.5,6.4,6.6C6,7,5.7,7.3,5.3,7.6
		c0,0,0,0,0,0C5,8,5,8.4,5.1,8.6c0,0,0,0,0,0c0.3,0.7,0.7,1.4,1.4,2.2l0,0c1.2,1.4,2.4,2.6,3.7,3.4c0.2,0.1,0.4,0.2,0.5,0.3
		c0.2,0.1,0.3,0.1,0.4,0.2c0,0,0,0,0.1,0c0.1,0.1,0.3,0.1,0.4,0.1c0.4,0,0.6-0.2,0.6-0.3l1.4-1.4c0.1-0.1,0.4-0.3,0.6-0.3
		c0.3,0,0.5,0.2,0.6,0.3c0,0,0,0,0,0l2.3,2.3C17.7,15.9,17.7,16.4,17.3,16.8z"/>
	<path class="st1" d="M13.7,6.3c0.8,0.8,1.3,1.8,1.5,2.9c0,0.3,0.3,0.5,0.6,0.5c0,0,0.1,0,0.1,0c0.3-0.1,0.5-0.3,0.5-0.7
		c-0.2-1.3-0.9-2.6-1.8-3.5c-1-1-2.2-1.6-3.5-1.8c-0.3-0.1-0.6,0.2-0.7,0.5c-0.1,0.3,0.1,0.6,0.5,0.7C11.9,4.9,12.9,5.5,13.7,6.3z"
		/>
	<path class="st1" d="M17,3c-1.6-1.6-3.6-2.6-5.8-3c-0.3-0.1-0.6,0.2-0.7,0.5c-0.1,0.3,0.2,0.6,0.5,0.7c2,0.3,3.8,1.3,5.2,2.7
		C17.6,5.2,18.5,7,18.8,9c0,0.3,0.3,0.5,0.6,0.5c0,0,0.1,0,0.1,0c0.3,0,0.5-0.3,0.5-0.7C19.6,6.6,18.5,4.6,17,3z"/>
</g>
</svg>
