<?xml version="1.0" encoding="utf-8"?>
<!-- Generator: Adobe Illustrator 23.0.0, SVG Export Plug-In . SVG Version: 6.00 Build 0)  -->
<svg version="1.1" id="Layer_1" xmlns="http://www.w3.org/2000/svg" xmlns:xlink="http://www.w3.org/1999/xlink" x="0px" y="0px"
	 viewBox="0 0 14 6.2" style="enable-background:new 0 0 14 6.2;" xml:space="preserve">
<path d="M13.9,2.9l-3.1-2.8C10.7,0,10.6,0,10.5,0c-0.1,0-0.2,0.1-0.2,0.2v1.8H0.3c-0.1,0-0.1,0-0.2,0.1C0,2.2,0,2.3,0,2.3v1.6
	C0,4,0,4,0.1,4.1c0,0,0.1,0.1,0.2,0.1h10.1V6c0,0.1,0.1,0.2,0.2,0.2c0.1,0,0.2,0,0.3,0l3.1-2.9C14,3.2,14,3.2,14,3.1
	C14,3,14,3,13.9,2.9z"/>
</svg>
