<?xml version="1.0" encoding="utf-8"?>
<!-- Generator: Adobe Illustrator 23.0.0, SVG Export Plug-In . SVG Version: 6.00 Build 0)  -->
<svg version="1.1" id="Layer_1" xmlns="http://www.w3.org/2000/svg" xmlns:xlink="http://www.w3.org/1999/xlink" x="0px" y="0px"
	 viewBox="0 0 30.5 30.5" style="enable-background:new 0 0 30.5 30.5;" xml:space="preserve">
<style type="text/css">
	.st0{fill:none;}
</style>
<g>
	<path class="st0" d="M20,18.1C19.9,18,19.8,18,19.8,18c-0.1,0-0.1,0-0.2,0.1l-0.9,1.3c-0.2,0.3-0.5,0.4-0.8,0.4c-0.1,0-3-0.2-5-2.2
		c-1.9-1.9-2.2-4.8-2.2-5c0-0.3,0.1-0.6,0.4-0.8l1.3-0.9c0.1-0.1,0.1-0.1,0.1-0.2c0-0.1,0-0.1-0.1-0.2l-1.6-1.6c0,0-0.1-0.1-0.2-0.1
		c0,0-0.1,0-0.1,0C9.4,9.5,9,10.6,8.9,11.4c-0.4,2.3,0.8,5.1,2.9,7.3c2.1,2.1,5,3.3,7.3,2.9c0.8-0.1,1.9-0.5,2.5-1.6
		c0-0.1,0-0.2-0.1-0.3L20,18.1z"/>
	<path class="st0" d="M5.8,5.8C1.3,10.2,0.6,17,3.9,22.3C4,22.5,4,22.8,4,23l-1.3,4.8l4.8-1.3c0.1,0,0.2,0,0.2,0
		c0.2,0,0.3,0,0.5,0.1c5.3,3.3,12.1,2.5,16.5-1.9c5.2-5.2,5.2-13.7,0-18.9C19.5,0.6,11,0.6,5.8,5.8z M23.3,20.8
		c-0.7,1.4-2.1,2.3-3.9,2.6c-0.4,0.1-0.7,0.1-1.1,0.1c-2.6,0-5.5-1.3-7.7-3.6c-2.6-2.6-3.9-6-3.5-8.8C7.4,9.3,8.3,8,9.7,7.2
		c0.8-0.4,1.8-0.3,2.4,0.4l1.6,1.6c0.4,0.4,0.7,1,0.6,1.7c-0.1,0.6-0.4,1.2-0.9,1.5L12.7,13c0.1,0.8,0.5,2.2,1.6,3.3
		c1,1,2.5,1.4,3.3,1.6l0.6-0.8c0.4-0.5,0.9-0.8,1.5-0.9c0.6-0.1,1.2,0.2,1.7,0.6l1.6,1.6C23.5,19,23.7,20,23.3,20.8z"/>
	<path d="M21.3,16.7c-0.4-0.4-1.1-0.7-1.7-0.6c-0.6,0.1-1.2,0.4-1.5,0.9l-0.6,0.8c-0.8-0.1-2.2-0.5-3.3-1.6c-1-1-1.4-2.5-1.6-3.3
		l0.8-0.6c0.5-0.4,0.8-0.9,0.9-1.5c0.1-0.6-0.2-1.2-0.6-1.7l-1.6-1.6C11.5,7,10.5,6.8,9.7,7.2C8.3,8,7.4,9.3,7.1,11.1
		C6.6,14,8,17.4,10.5,20c2.3,2.3,5.1,3.6,7.7,3.6c0.4,0,0.8,0,1.1-0.1c1.8-0.3,3.1-1.2,3.9-2.6c0.4-0.8,0.3-1.8-0.4-2.4L21.3,16.7z
		 M21.6,19.9c-0.6,1.1-1.7,1.5-2.5,1.6c-2.3,0.4-5.1-0.8-7.3-2.9c-2.1-2.1-3.3-5-2.9-7.3c0.1-0.8,0.5-1.9,1.6-2.5c0,0,0.1,0,0.1,0
		c0.1,0,0.1,0,0.2,0.1l1.6,1.6c0.1,0.1,0.1,0.1,0.1,0.2c0,0.1,0,0.1-0.1,0.2l-1.3,0.9c-0.3,0.2-0.4,0.5-0.4,0.8c0,0.1,0.2,3,2.2,5
		c1.9,1.9,4.8,2.2,5,2.2c0.3,0,0.6-0.1,0.8-0.4l0.9-1.3c0.1-0.1,0.1-0.1,0.2-0.1c0.1,0,0.1,0,0.2,0.1l1.6,1.6
		C21.6,19.7,21.7,19.9,21.6,19.9z"/>
	<path d="M26,4.5C23.2,1.6,19.3,0,15.2,0C11.2,0,7.3,1.6,4.5,4.5c-2.4,2.4-4,5.7-4.4,9.1c-0.4,3.2,0.4,6.6,2,9.4l-1.6,5.9
		c-0.1,0.3,0,0.7,0.2,0.9C1,30,1.3,30.1,1.6,30l5.9-1.6c2.3,1.4,5,2.1,7.7,2.1c0.5,0,1.1,0,1.6-0.1c3.4-0.4,6.7-1.9,9.1-4.4
		c2.9-2.9,4.5-6.7,4.5-10.8v0C30.5,11.2,28.9,7.3,26,4.5z M24.7,24.7c-4.4,4.4-11.2,5.2-16.5,1.9c-0.1-0.1-0.3-0.1-0.5-0.1
		c-0.1,0-0.2,0-0.2,0l-4.8,1.3L4,23c0.1-0.2,0-0.5-0.1-0.7C0.6,17,1.3,10.2,5.8,5.8c5.2-5.2,13.7-5.2,18.9,0
		C29.9,11,29.9,19.5,24.7,24.7z"/>
</g>
</svg>
